<svg width="54" height="54" viewBox="0 0 54 54" fill="none" xmlns="http://www.w3.org/2000/svg"><circle cx="27" cy="27" r="27" fill="white"/><g clip-path="url(#clip0_267_1753)"><path d="M11.5684 14H42.0196C43.231 14.0009 44.3925 14.4824 45.249 15.339C46.1055 16.1955 46.5871 17.357 46.588 18.5683V35.2405C46.5842 36.1422 46.3143 37.0227 45.8123 37.7718C45.3103 38.5208 44.5984 39.105 43.7658 39.4512C43.2125 39.6817 42.619 39.8 42.0196 39.7992H11.5684C10.3618 39.8051 9.20211 39.3324 8.34346 38.4847C7.91618 38.0596 7.57744 37.554 7.34684 36.9972C7.11624 36.4403 6.99836 35.8432 7.00002 35.2405V18.5683C7.00087 17.357 7.48245 16.1955 8.33899 15.339C9.19554 14.4824 10.357 14.0009 11.5684 14Z" fill="#FFCB00"/><path d="M12.1773 16.3357H41.4075C41.7004 16.334 41.9907 16.391 42.2613 16.5033C42.5335 16.6144 42.7802 16.7799 42.9861 16.9897C43.1955 17.198 43.3619 17.4454 43.4758 17.7178C43.5885 17.9871 43.6454 18.2765 43.6434 18.5684V35.2405C43.6439 35.5323 43.587 35.8213 43.4758 36.091C43.3619 36.3635 43.1955 36.6109 42.9861 36.8191C42.7795 37.0289 42.533 37.1954 42.2613 37.3088C41.9903 37.4196 41.7003 37.4765 41.4075 37.4764H12.1773C11.885 37.4793 11.5951 37.4238 11.3245 37.3132C11.054 37.2026 10.8083 37.039 10.6019 36.832C10.3925 36.6237 10.2261 36.3764 10.1122 36.1039C9.99955 35.8346 9.94257 35.5453 9.94463 35.2534V18.5684C9.94257 18.2765 9.99955 17.9871 10.1122 17.7178C10.2261 17.4454 10.3925 17.198 10.6019 16.9897C10.8078 16.7799 11.0545 16.6144 11.3267 16.5033C11.5962 16.3912 11.8854 16.3343 12.1773 16.3357Z" fill="#262626"/><path d="M19.7901 31.1457H13.1212V28.1303L19.7901 20.192H22.9795V28.3075H24.6387V31.1457H22.9795V33.6168H19.7901V31.1457ZM26.4783 20.4143H30.5537V25.4015L34.8289 20.4143H40.2542L35.4217 25.3725L40.4636 33.6168H35.4571L32.6703 28.1947L30.5537 30.4015V33.6232H26.4783V20.4143ZM19.7901 28.3075V24.1386L16.2462 28.3075H19.7901Z" fill="#FFDD55"/></g><defs><clipPath id="clip0_267_1753"><rect width="39.588" height="25.8088" fill="white" transform="translate(7 14)"/></clipPath></defs></svg>