<svg width="95" height="36" viewBox="0 0 95 36" fill="none" xmlns="http://www.w3.org/2000/svg"><rect width="95" height="36" rx="4" fill="white"/><path d="M26.1633 24.473C25.9664 24.8252 25.8188 25.2102 25.5727 25.5215C25.2036 25.9802 24.654 26.1194 24.088 26.1767C20.0933 26.5699 16.1067 26.9795 12.112 27.3808C10.5617 27.5283 9.05238 26.1931 9.02777 24.5549C8.99496 22.1631 8.98676 19.7632 9.02777 17.3714C9.05238 15.6923 10.5289 14.4227 12.194 14.5783C15.754 14.9223 19.314 15.2827 22.874 15.6349C23.1857 15.6677 23.4974 15.7168 23.8091 15.7168C25.0149 15.725 25.8188 16.2656 26.1633 17.4451C26.1633 19.7878 26.1633 22.1304 26.1633 24.473ZM24.9411 20.9673C24.9411 19.9352 24.9493 18.9031 24.9411 17.8629C24.9411 17.3468 24.6622 17.011 24.1864 16.9619C23.0873 16.8472 21.9963 16.7407 20.8971 16.6342C17.9852 16.3475 15.0732 16.0609 12.1694 15.766C11.1851 15.6677 10.2582 16.3885 10.25 17.3714C10.2254 19.7632 10.2254 22.1631 10.25 24.5549C10.2582 25.4887 11.1441 26.2423 12.0628 26.1604C12.6206 26.1112 13.1702 26.0457 13.7279 25.9965C17.1649 25.6443 20.6018 25.3003 24.0388 24.9563C24.6622 24.8908 24.9493 24.6041 24.9493 23.9816C24.9411 22.9741 24.9411 21.9666 24.9411 20.9673Z" fill="#511BC9"/><path d="M17.5503 13.0056C18.3706 12.1865 19.199 11.3592 20.0275 10.5401C20.2818 10.2862 20.5279 10.0569 20.5443 9.63093C20.5689 9.18862 21.0447 8.91012 21.504 8.95927C21.947 9.00842 22.2997 9.40158 22.3079 9.85209C22.3079 10.2944 21.9634 10.7285 21.5204 10.7449C21.2251 10.7531 21.0529 10.8923 20.8642 11.0725C19.9127 12.0309 18.9612 12.9811 18.0097 13.9312C17.6323 14.308 17.4273 14.308 17.0499 13.9312C15.8441 12.7189 14.6465 11.5149 13.4325 10.319C13.3095 10.2043 13.1208 10.1224 12.9486 10.0978C12.4154 10.0159 12.0627 9.64731 12.0873 9.13947C12.1037 8.67259 12.481 8.30399 12.9568 8.28761C13.4653 8.27123 13.8345 8.61525 13.9001 9.15585C13.9165 9.2951 13.9575 9.45892 14.0477 9.54902C15.1633 10.6794 16.2953 11.8015 17.4191 12.9237C17.4519 12.9565 17.4847 12.9729 17.5503 13.0056Z" fill="#511BC9"/><path d="M14.9337 28.8797C14.3431 28.9125 14.0642 28.7405 14.015 28.3801C13.9658 28.0197 14.2118 27.7412 14.6958 27.6839C16.7629 27.4463 18.8218 27.2088 20.8889 26.9876C21.3646 26.9385 21.6353 27.1269 21.6763 27.4873C21.7174 27.8559 21.5041 28.1098 21.0447 28.1671C18.9694 28.4129 16.8859 28.6504 14.9337 28.8797Z" fill="#511BC9"/><path d="M36.5416 13.9744V15.361H38.6662V17.5415H40.0976V15.361H42.211V13.9744H40.0976V11.7939H38.6662V13.9744H36.5416ZM43.2806 17.7875C43.6608 18.0112 44.3206 18.1677 44.9692 18.1677C47.4628 18.1677 48.8382 16.6358 48.8382 14.0639C48.8382 11.7491 47.5522 10.575 45.8973 10.575C44.1976 10.575 43.057 11.6597 43.057 13.1357C43.057 14.5894 44.164 15.5735 45.5618 15.5735C46.2104 15.5735 46.8366 15.3163 47.1385 14.869C47.0267 16.1549 46.0426 16.6581 44.9356 16.6581C44.4212 16.6581 43.8957 16.4904 43.6608 16.3674L43.2806 17.7875ZM46.9037 13.0798C46.9037 13.6725 46.434 14.1086 45.819 14.1086C45.204 14.1086 44.7343 13.6837 44.7343 13.0798C44.7343 12.476 45.204 12.0511 45.819 12.0511C46.434 12.0511 46.9037 12.476 46.9037 13.0798ZM49.4859 16.9489C49.4859 17.5639 50.0003 18.1006 50.6265 18.1006C51.2527 18.1006 51.7783 17.5639 51.7783 16.9489C51.7783 16.3227 51.2527 15.8083 50.6265 15.8083C50.0003 15.8083 49.4859 16.3227 49.4859 16.9489ZM54.4242 14.377C54.4242 13.7955 54.4913 13.2252 54.6925 12.8003C54.8938 12.3977 55.2181 12.1293 55.7548 12.1293C56.3028 12.1293 56.6159 12.3977 56.8172 12.8003C57.0296 13.2252 57.0967 13.7955 57.0967 14.377C57.0967 14.9584 57.0296 15.5287 56.8172 15.9537C56.6159 16.3562 56.3028 16.6246 55.7548 16.6246C55.2181 16.6246 54.8938 16.3562 54.6925 15.9537C54.4913 15.5287 54.4242 14.9584 54.4242 14.377ZM52.6574 14.377C52.6574 15.2715 52.7916 16.1773 53.2948 16.9377C53.7756 17.6534 54.5807 18.1789 55.7548 18.1789C56.9402 18.1789 57.7453 17.6534 58.2261 16.9377C58.7293 16.1773 58.8635 15.2715 58.8635 14.377C58.8635 13.4824 58.7293 12.5766 58.2261 11.8162C57.7453 11.0894 56.9402 10.575 55.7548 10.575C54.5807 10.575 53.7756 11.0894 53.2948 11.8162C52.7916 12.5766 52.6574 13.4824 52.6574 14.377ZM61.4349 14.377C61.4349 13.7955 61.502 13.2252 61.7033 12.8003C61.9045 12.3977 62.2288 12.1293 62.7656 12.1293C63.3135 12.1293 63.6266 12.3977 63.8279 12.8003C64.0403 13.2252 64.1074 13.7955 64.1074 14.377C64.1074 14.9584 64.0403 15.5287 63.8279 15.9537C63.6266 16.3562 63.3135 16.6246 62.7656 16.6246C62.2288 16.6246 61.9045 16.3562 61.7033 15.9537C61.502 15.5287 61.4349 14.9584 61.4349 14.377ZM59.6681 14.377C59.6681 15.2715 59.8023 16.1773 60.3055 16.9377C60.7863 17.6534 61.5914 18.1789 62.7656 18.1789C63.9509 18.1789 64.756 17.6534 65.2368 16.9377C65.74 16.1773 65.8742 15.2715 65.8742 14.377C65.8742 13.4824 65.74 12.5766 65.2368 11.8162C64.756 11.0894 63.9509 10.575 62.7656 10.575C61.5914 10.575 60.7863 11.0894 60.3055 11.8162C59.8023 12.5766 59.6681 13.4824 59.6681 14.377ZM68.4456 14.377C68.4456 13.7955 68.5127 13.2252 68.714 12.8003C68.9153 12.3977 69.2396 12.1293 69.7763 12.1293C70.3242 12.1293 70.6373 12.3977 70.8386 12.8003C71.0511 13.2252 71.1182 13.7955 71.1182 14.377C71.1182 14.9584 71.0511 15.5287 70.8386 15.9537C70.6373 16.3562 70.3242 16.6246 69.7763 16.6246C69.2396 16.6246 68.9153 16.3562 68.714 15.9537C68.5127 15.5287 68.4456 14.9584 68.4456 14.377ZM66.6788 14.377C66.6788 15.2715 66.813 16.1773 67.3162 16.9377C67.7971 17.6534 68.6022 18.1789 69.7763 18.1789C70.9616 18.1789 71.7667 17.6534 72.2476 16.9377C72.7508 16.1773 72.885 15.2715 72.885 14.377C72.885 13.4824 72.7508 12.5766 72.2476 11.8162C71.7667 11.0894 70.9616 10.575 69.7763 10.575C68.6022 10.575 67.7971 11.0894 67.3162 11.8162C66.813 12.5766 66.6788 13.4824 66.6788 14.377Z" fill="#511BC9"/><path d="M39.9783 27V26.1502H37.5555V21.7145H36.6609V27H39.9783ZM41.5787 27V23.3695H40.7214V27H41.5787ZM40.5872 22.0947C40.5872 22.4078 40.8407 22.6538 41.1463 22.6538C41.4595 22.6538 41.7129 22.4078 41.7129 22.0947C41.7129 21.7816 41.4595 21.5282 41.1463 21.5282C40.8407 21.5282 40.5872 21.7816 40.5872 22.0947ZM45.9744 23.3695H45.065L44.1257 25.9638L43.164 23.3695H42.2098L43.6858 27H44.5506L45.9744 23.3695ZM47.1057 24.7859C47.1355 24.3983 47.4486 23.9808 47.9928 23.9808C48.5892 23.9808 48.8724 24.361 48.8874 24.7859H47.1057ZM48.9843 25.7327C48.865 26.0905 48.5966 26.3663 48.0748 26.3663C47.538 26.3663 47.1057 25.9712 47.0833 25.4196H49.7372C49.7447 25.4047 49.7596 25.2854 49.7596 25.1438C49.7596 23.9957 49.1035 23.2577 47.9853 23.2577C47.0684 23.2577 46.2185 24.0181 46.2185 25.1661C46.2185 26.3962 47.0907 27.1118 48.0748 27.1118C48.947 27.1118 49.521 26.5974 49.7148 25.9638L48.9843 25.7327ZM54.8579 27.1118C56.2072 27.1118 57.0123 26.2545 57.2509 25.3599L56.4309 25.0916C56.252 25.688 55.745 26.2545 54.8579 26.2545C53.9559 26.2545 53.106 25.5985 53.106 24.361C53.106 23.0788 53.9782 22.4451 54.8505 22.4451C55.7376 22.4451 56.2296 22.9595 56.3861 23.6006L57.2285 23.3173C56.99 22.3929 56.1923 21.6027 54.8505 21.6027C53.4788 21.6027 52.1891 22.6389 52.1891 24.361C52.1891 26.0831 53.434 27.1118 54.8579 27.1118ZM58.8764 24.8679C58.8913 24.4057 59.1522 24.0479 59.6293 24.0479C60.1735 24.0479 60.3748 24.4057 60.3748 24.853V27H61.2396V24.7039C61.2396 23.9063 60.8072 23.2651 59.9126 23.2651C59.5324 23.2651 59.1224 23.3993 58.8764 23.7199V21.6027H58.0116V27H58.8764V24.8679ZM62.0687 26.016C62.0687 26.59 62.5383 27.1118 63.2987 27.1118C63.8877 27.1118 64.2455 26.8136 64.417 26.5378C64.417 26.8285 64.4468 26.9776 64.4542 27H65.2594C65.2519 26.9627 65.2146 26.7465 65.2146 26.4185V24.6145C65.2146 23.8913 64.7897 23.2577 63.6715 23.2577C62.7769 23.2577 62.2103 23.8168 62.1432 24.443L62.9335 24.6219C62.9707 24.2566 63.2242 23.9659 63.6789 23.9659C64.156 23.9659 64.3648 24.2119 64.3648 24.5175C64.3648 24.6443 64.3051 24.7486 64.0964 24.7785L63.1646 24.9201C62.5458 25.0096 62.0687 25.3674 62.0687 26.016ZM63.4627 26.4334C63.1198 26.4334 62.9335 26.2098 62.9335 25.9638C62.9335 25.6656 63.1496 25.5165 63.418 25.4718L64.3648 25.3301V25.4941C64.3648 26.2023 63.9473 26.4334 63.4627 26.4334ZM67.1247 24.9052C67.1247 24.4281 67.3857 24.0479 67.8777 24.0479C68.4219 24.0479 68.6232 24.4057 68.6232 24.853V27H69.4879V24.7039C69.4879 23.9063 69.063 23.2651 68.1759 23.2651C67.7733 23.2651 67.3409 23.4366 67.1024 23.8541V23.3695H66.26V27H67.1247V24.9052ZM71.4054 24.9052C71.4054 24.4281 71.6664 24.0479 72.1584 24.0479C72.7026 24.0479 72.9039 24.4057 72.9039 24.853V27H73.7686V24.7039C73.7686 23.9063 73.3437 23.2651 72.4566 23.2651C72.054 23.2651 71.6216 23.4366 71.3831 23.8541V23.3695H70.5407V27H71.4054V24.9052ZM75.4252 24.7859C75.455 24.3983 75.7681 23.9808 76.3123 23.9808C76.9087 23.9808 77.192 24.361 77.2069 24.7859H75.4252ZM77.3038 25.7327C77.1846 26.0905 76.9162 26.3663 76.3943 26.3663C75.8576 26.3663 75.4252 25.9712 75.4029 25.4196H78.0568C78.0642 25.4047 78.0791 25.2854 78.0791 25.1438C78.0791 23.9957 77.4231 23.2577 76.3049 23.2577C75.3879 23.2577 74.5381 24.0181 74.5381 25.1661C74.5381 26.3962 75.4103 27.1118 76.3943 27.1118C77.2666 27.1118 77.8406 26.5974 78.0344 25.9638L77.3038 25.7327ZM79.7703 27V21.6027H78.9055V27H79.7703Z" fill="#37363E"/></svg>