<?xml version="1.0" encoding="UTF-8"?><svg width="815px" height="1000px" viewBox="0 0 815 1000" version="1.1" xmlns="http://www.w3.org/2000/svg" xmlns:xlink="http://www.w3.org/1999/xlink"><title>apple</title><g id="Page-1" stroke="none" stroke-width="1" fill="none" fill-rule="evenodd"><g id="apple" transform="translate(0.000000, 0.000000)" fill="#000000" fill-rule="nonzero"><path d="M788.1,340.9 C782.3,345.4 679.9,403.1 679.9,531.4 C679.9,679.8 810.2,732.3 814.1,733.6 C813.5,736.8 793.4,805.5 745.4,875.5 C702.6,937.1 657.9,998.6 589.9,998.6 C521.9,998.6 504.4,959.1 425.9,959.1 C349.4,959.1 322.2,999.9 260,999.9 C197.8,999.9 154.4,942.9 104.5,872.9 C46.7,790.7 0,663 0,541.8 C0,347.4 126.4,244.3 250.8,244.3 C316.9,244.3 372,287.7 413.5,287.7 C453,287.7 514.6,241.7 589.8,241.7 C618.3,241.7 720.7,244.3 788.1,340.9 Z M554.1,159.4 C585.2,122.5 607.2,71.3 607.2,20.1 C607.2,13 606.6,5.8 605.3,2.13162821e-14 C554.7,1.9 494.5,33.7 458.2,75.8 C429.7,108.2 403.1,159.4 403.1,211.3 C403.1,219.1 404.4,226.9 405,229.4 C408.2,230 413.4,230.7 418.6,230.7 C464,230.7 521.1,200.3 554.1,159.4 Z" id="Shape"/></g></g></svg>