<svg width="24" height="24" viewBox="0 0 24 24" fill="none" xmlns="http://www.w3.org/2000/svg"><path d="M19.0612 7.85374C18.9219 7.71435 18.7565 7.60378 18.5745 7.52834C18.3924 7.45289 18.1973 7.41406 18.0002 7.41406C17.8032 7.41406 17.6081 7.45289 17.426 7.52834C17.2439 7.60378 17.0785 7.71435 16.9392 7.85374L12.3532 12.4387C12.2595 12.5325 12.1323 12.5851 11.9997 12.5851C11.8672 12.5851 11.74 12.5325 11.6462 12.4387L7.06125 7.85374C6.77999 7.57235 6.39846 7.41421 6.0006 7.41411C5.60274 7.41402 5.22114 7.57198 4.93975 7.85324C4.65835 8.1345 4.50022 8.51603 4.50012 8.91389C4.50003 9.31175 4.65799 9.69335 4.93925 9.97474L9.52525 14.5607C9.85026 14.8858 10.2361 15.1436 10.6608 15.3195C11.0854 15.4955 11.5406 15.586 12.0002 15.586C12.4599 15.586 12.9151 15.4955 13.3397 15.3195C13.7644 15.1436 14.1502 14.8858 14.4752 14.5607L19.0612 9.97474C19.3425 9.69345 19.5004 9.31199 19.5004 8.91424C19.5004 8.5165 19.3425 8.13503 19.0612 7.85374Z" fill="#37363E"/></svg>