<svg width="72" height="50" viewBox="0 0 72 50" fill="none" xmlns="http://www.w3.org/2000/svg"><g clip-path="url(#clip0_55_1136)"><path d="M49.1269 34.7743C47.9557 31.4736 46.8484 28.1729 45.6985 24.8722C45.3152 23.7649 44.9319 22.6789 44.2717 21.6993C43.3348 20.2939 42.0571 19.5699 40.3322 19.5699C29.983 19.5911 19.6337 19.5911 9.2632 19.5911C7.58092 19.5911 6.30324 20.2726 5.36627 21.6567C4.91908 22.3169 4.57836 23.0409 4.30153 23.7862C2.98126 27.598 1.66099 31.4097 0.319421 35.2428C0.106474 35.8816 0 36.5204 0 37.2019C0 39.6934 0 42.1848 0 44.6763C0 44.9957 0.0212947 45.3152 0.0851789 45.6346C0.596252 48.2964 2.70443 50 5.53663 50C11.9676 50 18.3773 50 24.8083 50C31.1968 50 37.6065 50 43.9949 50C47.3808 50 49.5741 47.8066 49.5954 44.4421C49.6167 42.1423 49.5954 39.8211 49.5954 37.5213C49.6167 36.563 49.4463 35.6687 49.1269 34.7743ZM6.49489 23.552C7.13373 22.1252 8.17717 21.4438 9.88075 21.4651C19.8893 21.529 29.8978 21.529 39.9063 21.4651C41.4608 21.4651 42.4191 22.1252 43.0579 23.4029C43.9736 25.2342 44.4847 27.2147 45.1874 29.1312C45.5707 30.1533 45.8901 31.1755 46.316 32.368C45.3152 31.9634 44.4208 32.006 43.5264 32.006C31.0903 32.006 18.6329 32.006 6.19676 32.006C5.28109 32.006 4.34412 31.9421 3.32198 32.3893C4.4293 29.3441 5.2385 26.3629 6.49489 23.552ZM47.7002 44.3782C47.6789 46.7845 46.3586 48.1048 43.931 48.1048C31.1542 48.1048 18.3773 48.1048 5.60051 48.1048C3.19421 48.1048 1.87394 46.7845 1.87394 44.3569C1.87394 42.0997 1.87394 39.8424 1.87394 37.5852C1.87394 35.2002 3.17291 33.8799 5.55792 33.8799C11.9889 33.8799 18.4199 33.8799 24.8296 33.8799C31.1755 33.8799 37.5213 33.8799 43.8671 33.8799C46.4225 33.8799 47.6789 35.1363 47.6789 37.6917C47.7215 39.9276 47.7215 42.1635 47.7002 44.3782Z" fill="#511BC9"/><path d="M38.2877 37.5C37.7979 37.8833 37.8192 38.4157 38.3516 39.0758C39.0756 39.9702 39.2886 40.9711 38.9478 42.0571C38.5858 43.2709 37.5637 44.0588 36.3286 44.1653C35.0296 44.2717 34.0501 43.7394 33.4112 42.632C32.7511 41.5247 32.8788 40.2257 33.7093 39.1397C34.2417 38.437 34.2843 37.9259 33.8158 37.5426C33.326 37.1167 32.7937 37.2658 32.1974 37.9898C30.8346 39.6721 30.7281 42.0997 31.9419 43.9097C33.1557 45.6985 35.4129 46.4864 37.4785 45.8688C39.5441 45.23 40.9495 43.3348 40.9495 41.1414C40.9708 39.9276 40.5662 38.8629 39.7996 37.9259C39.2886 37.2445 38.7775 37.1167 38.2877 37.5Z" fill="#511BC9"/><path d="M15.6511 38.1815C14.0966 38.2028 12.8828 39.4165 12.8828 40.9711C12.8828 42.5256 14.1605 43.8033 15.715 43.8033C17.2269 43.782 18.4833 42.5256 18.5046 40.9924C18.4833 39.4378 17.2056 38.1815 15.6511 38.1815ZM15.7363 41.908C15.1401 41.8867 14.7993 41.6099 14.778 41.0349C14.7567 40.4813 15.0549 40.1193 15.6085 40.0767C16.2048 40.0554 16.5668 40.3535 16.5881 40.9711C16.5881 41.546 16.2474 41.8229 15.7363 41.908Z" fill="#511BC9"/><path d="M8.77339 38.1815C7.24017 38.2028 6.02637 39.4165 6.02637 40.9711C6.02637 42.5043 7.26146 43.7607 8.77339 43.782C10.3279 43.8033 11.6269 42.5256 11.6269 40.9711C11.6269 39.4378 10.3492 38.1815 8.77339 38.1815ZM8.85857 41.908C8.26231 41.8867 7.9216 41.5673 7.9003 41.0137C7.87901 40.46 8.19843 40.098 8.75209 40.0767C9.34834 40.0554 9.71035 40.3748 9.71035 40.9924C9.73165 41.5673 9.36964 41.8441 8.85857 41.908Z" fill="#511BC9"/><path d="M36.0736 41.8654C36.6699 41.8441 36.968 41.4821 36.968 40.8646C36.968 40.2257 36.968 39.5869 36.968 38.9481C36.968 38.3092 36.968 37.6704 36.968 37.0315C36.968 36.4353 36.6699 36.052 36.0949 36.0094C35.4987 35.9668 35.1367 36.3501 35.1154 36.9251C35.0728 38.2453 35.0728 39.5656 35.0941 40.9072C35.1154 41.5034 35.4774 41.8867 36.0736 41.8654Z" fill="#511BC9"/><path d="M71.4007 4.77002C71.4007 1.83135 69.5907 0.0212981 66.6307 0.0212981C63.8624 0.0212981 61.1154 0.0851823 58.3471 3.4275e-06C55.451 -0.0851754 53.4493 2.06559 53.4919 4.8552C53.5984 11.563 53.5132 18.2922 53.5132 25C53.5132 31.7717 53.5132 38.5434 53.5132 45.3152C53.5132 48.1687 55.3232 49.9787 58.198 49.9787C61.0302 49.9787 63.8837 49.9787 66.7159 49.9787C69.5694 49.9787 71.3794 48.1474 71.3794 45.2939C71.4007 31.793 71.4007 18.2922 71.4007 4.77002ZM69.4842 45.5494C69.4629 47.0826 68.4834 48.0835 66.9501 48.1048C63.9476 48.1261 60.9663 48.1261 57.9638 48.1048C56.4518 48.1048 55.4297 47.1252 55.4084 45.6346C55.3658 43.3986 55.4084 41.184 55.3871 38.948C55.3871 38.4583 55.6001 38.3944 56.0047 38.3944C58.1767 38.4157 60.3488 38.3944 62.5208 38.3944C64.6077 38.3944 66.7159 38.4157 68.8028 38.3731C69.3777 38.3731 69.5055 38.5434 69.5055 39.0758C69.4842 41.2479 69.5055 43.3986 69.4842 45.5494ZM68.7389 36.5417C64.5225 36.4991 60.3062 36.5204 56.0898 36.5417C55.5362 36.5417 55.3871 36.3927 55.3871 35.839C55.4084 25.4685 55.4084 15.098 55.4084 4.70614C55.4084 2.8535 56.3454 1.91653 58.198 1.91653C61.0302 1.91653 63.8837 1.91653 66.7159 1.91653C68.5472 1.91653 69.5055 2.87479 69.5055 4.70614C69.5055 9.85946 69.5055 14.9915 69.5055 20.1448C69.5055 25.3407 69.5055 30.5366 69.5268 35.7538C69.5055 36.3501 69.399 36.5417 68.7389 36.5417Z" fill="#511BC9"/><path d="M62.4359 21.7632C59.6037 21.7845 57.3465 24.0417 57.3252 26.8739C57.3252 29.7274 59.625 32.0273 62.4785 32.0273C65.332 32.0273 67.6105 29.7061 67.5892 26.8314C67.568 23.9992 65.2468 21.7419 62.4359 21.7632ZM62.4998 30.132C60.6685 30.1533 59.1991 28.7266 59.1991 26.8952C59.1991 25.0852 60.6898 23.5946 62.4785 23.6159C64.2673 23.6371 65.694 25.0852 65.694 26.8739C65.694 28.7053 64.3099 30.1107 62.4998 30.132Z" fill="#511BC9"/><path d="M64.3942 13.0324C64.6497 13.0537 64.9266 13.0324 65.1821 13.0324C65.5228 13.0324 65.8848 13.075 66.2042 13.0324C66.7366 12.9472 67.0773 12.6278 67.056 12.0741C67.0347 11.5205 66.694 11.201 66.1404 11.1797C65.5654 11.1584 64.9691 11.1584 64.3942 11.1797C63.8192 11.201 63.4998 11.5205 63.4785 12.0741C63.4785 12.6278 63.7979 12.9685 64.3942 13.0324Z" fill="#511BC9"/><path d="M58.6448 13.0111C59.2623 13.0537 59.8586 13.0537 60.4761 13.0111C61.0085 12.9685 61.3705 12.6278 61.3492 12.0528C61.3279 11.4992 60.9872 11.1797 60.4335 11.1371C60.1354 11.1159 59.8586 11.1371 59.5605 11.1371C59.2623 11.1371 58.9855 11.1159 58.6874 11.1371C58.1124 11.1797 57.8143 11.4992 57.793 12.0528C57.7717 12.6278 58.0911 12.9898 58.6448 13.0111Z" fill="#511BC9"/><path d="M60.6677 15.3961C59.9437 15.2896 59.1984 15.2683 58.4531 15.4174C57.9633 15.5026 57.793 15.8859 57.8143 16.3757C57.8355 16.8229 58.0698 17.1423 58.517 17.2062C58.8577 17.2487 59.1984 17.2062 59.5391 17.2062C59.8798 17.2062 60.2206 17.2275 60.5613 17.2062C61.051 17.1636 61.3279 16.8654 61.3705 16.3757C61.4344 15.8646 61.2001 15.4813 60.6677 15.3961Z" fill="#511BC9"/><path d="M66.3114 15.3748C65.6513 15.3322 64.9912 15.3322 64.331 15.3748C63.7987 15.4174 63.5218 15.7581 63.5431 16.2905C63.5644 16.8441 63.8413 17.1849 64.4162 17.2062C64.7143 17.2274 64.9912 17.2062 65.2893 17.2062C65.6087 17.2062 65.9281 17.2274 66.2476 17.2062C66.8225 17.1636 67.1207 16.8441 67.1207 16.2905C67.1207 15.7581 66.8225 15.4174 66.3114 15.3748Z" fill="#511BC9"/><path d="M64.3736 8.77344C64.6718 8.79474 64.9486 8.77344 65.2467 8.77344C65.5662 8.77344 65.8856 8.79474 66.205 8.77344C66.7587 8.73086 67.0781 8.39014 67.0781 7.83648C67.0781 7.3254 66.7587 6.98469 66.2476 6.9421C65.6087 6.89951 64.9699 6.89951 64.3524 6.9421C63.82 6.98469 63.5645 7.3467 63.5645 7.85777C63.5645 8.41143 63.8626 8.73086 64.3736 8.77344Z" fill="#511BC9"/><path d="M58.6667 8.77344C58.9435 8.79474 59.2417 8.77344 59.5398 8.77344C59.8592 8.77344 60.1786 8.79474 60.4981 8.77344C61.0517 8.73086 61.3711 8.39014 61.3711 7.83648C61.3711 7.3254 61.0517 6.98469 60.5406 6.9421C59.9018 6.89951 59.263 6.89951 58.6454 6.9421C58.1343 6.98469 57.8575 7.3467 57.8575 7.85777C57.8362 8.41143 58.1343 8.73086 58.6667 8.77344Z" fill="#511BC9"/></g><defs><clipPath id="clip0_55_1136"><rect width="71.4012" height="50" fill="white"/></clipPath></defs></svg>