<svg width="28" height="28" viewBox="0 0 28 28" fill="none" xmlns="http://www.w3.org/2000/svg">
<circle cx="14" cy="14" r="14" fill="white"/>
<path d="M11.2104 16.8684L8.17354 13.8315L8.17349 13.8314C7.59044 13.2486 6.64531 13.2486 6.06226 13.8314L6.06215 13.8316C5.47928 14.4146 5.47928 15.3597 6.06215 15.9428L6.06227 15.9429L9.66485 19.5441C9.66491 19.5442 9.66498 19.5443 9.66504 19.5443C10.0747 19.9546 10.6307 20.185 11.2104 20.1848M11.2104 16.8684L12.7556 19.5445C12.346 19.9546 11.7901 20.185 11.2104 20.1848M11.2104 16.8684L19.8265 8.25231L19.8265 8.25226C20.4096 7.66939 21.3547 7.66939 21.9377 8.25226L21.9378 8.25237C22.5207 8.83542 22.5207 9.78054 21.9378 10.3636L21.9378 10.3637L12.756 19.5441L11.2104 16.8684ZM11.2104 20.1848C11.2103 20.1848 11.2103 20.1848 11.2102 20.1848L11.2104 19.6848L11.2106 20.1848C11.2105 20.1848 11.2105 20.1848 11.2104 20.1848Z" fill="#EF1893" stroke="#EF1893"/>
</svg>
