<svg width="204" height="30" viewBox="0 0 204 30" fill="none" xmlns="http://www.w3.org/2000/svg">
<rect x="53.8692" y="0.773775" width="42.0714" height="28.4524" rx="4.41667" fill="white" stroke="#D9D9D9" stroke-width="1.2619"/>
<ellipse cx="74.8233" cy="14.9194" rx="9.82428" ry="9.82428" fill="#6481E7"/>
<path fill-rule="evenodd" clip-rule="evenodd" d="M74.9395 8.0069V17.9243L79.3463 15.3191L74.9395 8.0069Z" fill="#C1CCF5"/>
<path fill-rule="evenodd" clip-rule="evenodd" d="M70.5312 15.3191L74.9381 17.9243V8.0069L70.5312 15.3191Z" fill="white"/>
<path fill-rule="evenodd" clip-rule="evenodd" d="M74.9384 13.3162L70.5312 15.319L74.9381 17.9241L79.3452 15.3193L74.9384 13.3162Z" fill="#8299EC"/>
<path fill-rule="evenodd" clip-rule="evenodd" d="M74.9384 13.3162L70.5312 15.319L74.9381 17.9241L74.9384 13.3162Z" fill="#C1CCF5"/>
<path fill-rule="evenodd" clip-rule="evenodd" d="M74.9395 18.7586V22.3654L79.3492 16.1549L74.9395 18.7586Z" fill="#C1CCF5"/>
<path fill-rule="evenodd" clip-rule="evenodd" d="M70.5312 16.1549L74.9381 22.3651V18.7586L70.5312 16.1549Z" fill="white"/>
<rect x="0.630952" y="0.773775" width="42.0714" height="28.4524" rx="4.41667" fill="white" stroke="#D9D9D9" stroke-width="1.2619"/>
<path fill-rule="evenodd" clip-rule="evenodd" d="M31.7292 15.0799C31.7292 20.5944 27.2591 25.0647 21.745 25.0647C16.2308 25.0647 11.7607 20.5944 11.7607 15.0799C11.7607 9.56553 16.2308 5.09521 21.745 5.09521C27.2591 5.09521 31.7292 9.56553 31.7292 15.0799ZM24.1432 11.3702C25.532 11.8472 26.548 12.5614 26.3487 13.8904C26.2039 14.8637 25.6624 15.3344 24.9429 15.4992C25.93 16.0111 26.2664 16.9827 25.9538 18.1574C25.3603 19.8479 23.9495 19.9903 22.0731 19.6369L21.6174 21.4542L20.5175 21.1808L20.9669 19.3879C20.6817 19.3173 20.3903 19.2418 20.0901 19.1612L19.6388 20.9629L18.5402 20.6895L18.9952 18.8685L16.7797 18.3116L17.3262 17.0568C17.3262 17.0568 18.1372 17.2709 18.1259 17.2553C18.4374 17.3321 18.5759 17.1298 18.6304 16.9956L19.8651 12.0632C19.8789 11.8303 19.798 11.5369 19.3524 11.4258C19.3693 11.4139 18.5533 11.2279 18.5533 11.2279L18.846 10.0574L21.0647 10.6049L21.5159 8.80443L22.6152 9.07787L22.1733 10.8427C22.4692 10.9095 22.7662 10.9776 23.0552 11.0493L23.4939 9.29574L24.5938 9.56918L24.1432 11.3702ZM21.5117 14.3736C22.261 14.5723 23.8913 15.0045 24.1755 13.8711C24.4654 12.7115 22.8815 12.3613 22.1059 12.1898L22.1059 12.1898C22.018 12.1704 21.9405 12.1533 21.8773 12.1375L21.3295 14.3262C21.3817 14.3391 21.443 14.3554 21.5117 14.3736L21.5117 14.3736ZM20.6622 17.8976C21.5597 18.134 23.5224 18.651 23.8347 17.4021C24.1543 16.1251 22.2513 15.6998 21.3228 15.4923L21.3228 15.4923C21.2191 15.4691 21.1275 15.4486 21.0526 15.43L20.4484 17.8422C20.5098 17.8574 20.5817 17.8764 20.6622 17.8976Z" fill="#F7931A"/>
<rect x="107.108" y="0.773775" width="42.0714" height="28.4524" rx="4.41667" fill="white" stroke="#D9D9D9" stroke-width="1.2619"/>
<g clip-path="url(#clip0_773_1750)">
<path fill-rule="evenodd" clip-rule="evenodd" d="M121.245 5.097L117.017 13.7924C117.001 13.8248 116.996 13.8613 117.003 13.8967C117.009 13.9321 117.027 13.9644 117.054 13.9891L128.471 24.7025C128.504 24.733 128.547 24.75 128.592 24.75C128.637 24.75 128.68 24.733 128.713 24.7025L140.13 13.9898C140.157 13.9651 140.175 13.9327 140.181 13.8974C140.188 13.862 140.183 13.8254 140.167 13.7931L135.939 5.09767C135.926 5.06847 135.904 5.04373 135.876 5.02641C135.848 5.00909 135.816 4.99993 135.784 5.00001H121.402C121.369 4.99961 121.337 5.00855 121.309 5.02576C121.281 5.04297 121.259 5.06771 121.245 5.097Z" fill="#50AF95"/>
<path fill-rule="evenodd" clip-rule="evenodd" d="M130.059 14.6854C129.977 14.6914 129.554 14.7162 128.609 14.7162C127.858 14.7162 127.324 14.6941 127.137 14.6854C124.233 14.5603 122.066 14.0653 122.066 13.4727C122.066 12.8801 124.233 12.3858 127.137 12.2587V14.1924C127.327 14.2058 127.871 14.2372 128.622 14.2372C129.524 14.2372 129.975 14.2005 130.056 14.1931V12.26C132.954 12.3865 135.116 12.8814 135.116 13.4727C135.116 14.064 132.955 14.559 130.056 14.6847L130.059 14.6854ZM130.059 12.06V10.3296H134.103V7.69092H123.093V10.3296H127.136V12.0594C123.85 12.2072 121.379 12.8446 121.379 13.6085C121.379 14.3724 123.85 15.0091 127.136 15.1576V20.7026H130.058V15.1556C133.337 15.0078 135.804 14.371 135.804 13.6078C135.804 12.8446 133.339 12.2079 130.058 12.0594L130.059 12.06Z" fill="white"/>
</g>
<rect x="160.631" y="0.773775" width="42.0714" height="28.4524" rx="4.41667" fill="white" stroke="#D9D9D9" stroke-width="1.2619"/>
<g clip-path="url(#clip1_773_1750)">
<path d="M181.875 24.75C187.347 24.75 191.75 20.3474 191.75 14.875C191.75 9.40257 187.347 5 181.875 5C176.403 5 172 9.40257 172 14.875C172 20.3474 176.403 24.75 181.875 24.75Z" fill="#2775CA"/>
<path d="M184.591 16.4385C184.591 14.9985 183.727 14.5047 181.998 14.299C180.764 14.1344 180.517 13.8053 180.517 13.2292C180.517 12.653 180.929 12.2828 181.752 12.2828C182.492 12.2828 182.904 12.5297 183.109 13.1469C183.151 13.2703 183.274 13.3526 183.397 13.3526H184.056C184.22 13.3526 184.344 13.2292 184.344 13.0646V13.0235C184.179 12.1182 183.439 11.4188 182.492 11.3365V10.349C182.492 10.1844 182.369 10.061 182.163 10.0198H181.546C181.381 10.0198 181.258 10.1432 181.217 10.349V11.2953C179.982 11.4599 179.201 12.2828 179.201 13.3115C179.201 14.6693 180.023 15.2042 181.752 15.4099C182.904 15.6156 183.274 15.8625 183.274 16.5209C183.274 17.1793 182.698 17.6318 181.916 17.6318C180.846 17.6318 180.476 17.1792 180.353 16.562C180.312 16.3974 180.188 16.3151 180.065 16.3151H179.365C179.201 16.3151 179.077 16.4385 179.077 16.6031V16.6443C179.242 17.6729 179.9 18.4135 181.258 18.6193V19.6068C181.258 19.7713 181.381 19.8948 181.587 19.936H182.204C182.369 19.936 182.492 19.8125 182.533 19.6068V18.6193C183.768 18.4135 184.591 17.5495 184.591 16.4385Z" fill="white"/>
<path d="M179.776 20.7588C176.567 19.6068 174.921 16.0271 176.114 12.8588C176.731 11.1307 178.089 9.81407 179.776 9.19688C179.941 9.11462 180.023 8.99119 180.023 8.78539V8.20938C180.023 8.04477 179.941 7.92133 179.776 7.88025C179.735 7.88025 179.653 7.88025 179.612 7.92133C175.703 9.1557 173.563 13.3115 174.797 17.2203C175.538 19.5245 177.307 21.2938 179.612 22.0344C179.776 22.1166 179.941 22.0344 179.982 21.8698C180.023 21.8287 180.023 21.7875 180.023 21.7052V21.1291C180.023 21.0057 179.9 20.8412 179.776 20.7588ZM184.138 7.92133C183.973 7.83907 183.808 7.92133 183.767 8.08595C183.726 8.12712 183.726 8.1682 183.726 8.25056V8.82657C183.726 8.99119 183.85 9.1557 183.973 9.23806C187.182 10.3901 188.828 13.9698 187.635 17.1381C187.018 18.8662 185.66 20.1828 183.973 20.8C183.808 20.8823 183.726 21.0057 183.726 21.2115V21.7875C183.726 21.9521 183.808 22.0756 183.973 22.1166C184.014 22.1166 184.096 22.1166 184.138 22.0756C188.046 20.8412 190.186 16.6854 188.952 12.7766C188.211 10.4313 186.401 8.66195 184.138 7.92133Z" fill="white"/>
</g>
<defs>
<clipPath id="clip0_773_1750">
<rect width="23.1848" height="19.75" fill="white" transform="translate(117 5)"/>
</clipPath>
<clipPath id="clip1_773_1750">
<rect width="19.75" height="19.75" fill="white" transform="translate(172 5)"/>
</clipPath>
</defs>
</svg>
