<svg width="18" height="18" viewBox="0 0 18 18" fill="none" xmlns="http://www.w3.org/2000/svg"><g clip-path="url(#clip0_95_2091)"><path d="M6.63884 13.275C7.95685 14.593 10.0938 14.593 11.4118 13.275L11.4119 13.275L13.8209 10.866C14.2678 10.4343 14.2802 9.72215 13.8485 9.27524C13.4169 8.82833 12.7047 8.81596 12.2578 9.24761C12.2484 9.25664 12.2392 9.26589 12.2301 9.27524L10.1429 11.3617L10.1256 1.125C10.1256 0.503684 9.62192 0 9.0006 0C8.37928 0 7.8756 0.503684 7.8756 1.125L7.89135 11.3452L5.82061 9.2745C5.37371 8.84285 4.66151 8.85523 4.22986 9.30213C3.8088 9.7381 3.8088 10.4293 4.22986 10.8652L6.63884 13.275Z" fill="white"/><path d="M16.875 10.875C16.2537 10.875 15.75 11.3787 15.75 12V15.4432C15.7496 15.6125 15.6125 15.7496 15.4433 15.75H2.55674C2.3875 15.7496 2.25039 15.6125 2.25 15.4432V12C2.25 11.3787 1.74632 10.875 1.125 10.875C0.503684 10.875 0 11.3787 0 12V15.4432C0.00165234 16.8546 1.14539 17.9984 2.55674 18H15.4432C16.8546 17.9984 17.9983 16.8546 18 15.4433V12C18 11.3787 17.4963 10.875 16.875 10.875Z" fill="white"/></g><defs><clipPath id="clip0_95_2091"><rect width="18" height="18" fill="white"/></clipPath></defs></svg>