<svg width="69" height="62" viewBox="0 0 69 62" fill="none" xmlns="http://www.w3.org/2000/svg">
<path d="M27.4672 0L0 7.58661V31.1413V33.2521V33.3405C0 34.3473 0 35.7604 0 37.7122C0 50.0946 27.4672 62 27.4672 62C27.4672 62 54.9345 50.0946 54.9345 37.7122C54.9345 35.7604 54.9345 34.3473 54.9345 33.3405V33.2521V31.1413V7.58661L27.4672 0Z" fill="#511BC9"/>
<path d="M34.0911 21.6029V26.2308H20.7549V21.6029C20.7549 18.5912 23.6959 16.1536 27.423 16.1536C31.15 16.1536 34.0911 18.5912 34.0911 21.6029Z" fill="#511BC9" stroke="white" stroke-width="2.61106" stroke-miterlimit="10"/>
<path d="M37.8005 43.1704C37.8005 43.4707 37.5532 43.718 37.2529 43.718H17.6814C17.3811 43.718 17.1338 43.4707 17.1338 43.1704V26.5134C17.1338 26.2131 17.3811 25.9658 17.6814 25.9658H37.2529C37.5532 25.9658 37.8005 26.2131 37.8005 26.5134V43.1704Z" fill="white" stroke="white" stroke-width="1.86504" stroke-miterlimit="10"/>
<path d="M28.5799 34.9479L29.4896 37.6681H25.3916L26.3013 34.939L26.6546 33.888C25.9127 33.5789 25.3916 32.8459 25.3916 31.9892C25.3916 30.8587 26.3101 29.9402 27.4406 29.9402C28.5711 29.9402 29.4896 30.8587 29.4896 31.9892C29.4896 32.8459 28.9685 33.5878 28.2266 33.8969L28.5799 34.9479Z" fill="#511BC9" stroke="#511BC9" stroke-width="0.652765" stroke-miterlimit="10" stroke-linecap="round" stroke-linejoin="round"/>
<path d="M68.191 47.4892C68.191 44.7866 67.3873 42.2784 65.9919 40.1852C65.0116 38.7014 63.7309 37.4208 62.2472 36.4405C60.154 35.0539 57.6457 34.2413 54.9432 34.2413C52.2406 34.2413 49.7324 35.045 47.6392 36.4405C46.1554 37.4208 44.8748 38.7014 43.8945 40.1852C42.5079 42.2784 41.6953 44.7866 41.6953 47.4892C41.6953 50.1918 42.499 52.7 43.8945 54.7932C44.2654 55.3496 44.6717 55.8795 45.1221 56.3741C45.3429 56.6214 45.5814 56.8598 45.8198 57.0895C46.3851 57.6282 46.9945 58.114 47.6392 58.5379C49.7324 59.9245 52.2406 60.7371 54.9432 60.7371C57.6457 60.7371 60.154 59.9334 62.2472 58.5379C62.9007 58.1051 63.5101 57.6194 64.0665 57.0895C64.305 56.8598 64.5435 56.6214 64.7643 56.3741C65.2147 55.8795 65.621 55.3496 65.9919 54.7932C67.3873 52.7 68.191 50.1918 68.191 47.4892Z" fill="#41E296"/>
<path d="M63.3596 42.2872L61.7522 40.6798C61.5049 40.4325 61.1075 40.4325 60.8602 40.6798L53.0704 48.4695L50.2972 45.6963C50.0499 45.449 49.6525 45.449 49.4052 45.6963L47.7978 47.3037C47.5505 47.551 47.5505 47.9485 47.7978 48.1958L52.62 53.018C52.7436 53.1416 52.9115 53.2034 53.0704 53.2034C53.2294 53.2034 53.3972 53.1416 53.5209 53.018L63.3508 43.1881C63.6069 42.9408 63.6069 42.5345 63.3596 42.2872Z" fill="white"/>
</svg>
