<svg width="55" height="55" viewBox="0 0 55 55" fill="none" xmlns="http://www.w3.org/2000/svg"><circle cx="27.5" cy="27.5" r="27.5" fill="white"/><path d="M47.6511 30.2097C47.6511 32.6539 47.6511 35.1044 47.6511 37.5486C47.6511 37.9175 47.6449 37.9237 47.3261 37.7549C44.4817 36.2671 41.6312 34.7731 38.7868 33.2853C38.2992 33.029 37.9929 32.6539 38.0304 32.0663C38.0617 31.5849 38.3055 31.2411 38.7431 31.0536C39.1181 30.891 39.487 30.916 39.8558 31.1036C41.1873 31.81 42.5251 32.5039 43.8629 33.204C44.2192 33.3915 44.5818 33.5791 44.9381 33.7666C45.2131 33.9104 45.2506 33.8916 45.2506 33.5666C45.2506 31.3286 45.2506 29.0907 45.2444 26.8527C45.2444 26.5026 45.2194 26.4901 44.8943 26.6589C43.2565 27.5154 41.6124 28.378 39.9746 29.2345C38.9181 29.7908 38.0304 29.2532 38.0242 28.0655C38.0242 26.3464 38.0242 24.6273 38.0242 22.9082C38.0242 21.8267 37.349 21.1578 36.2676 21.1516C31.8104 21.1516 27.3533 21.1516 22.8961 21.1578C22.6273 21.1578 22.5398 21.1328 22.6148 20.8202C22.7648 20.2201 22.7586 19.6013 22.6023 18.9949C22.5523 18.7948 22.5898 18.7261 22.8148 18.7261C27.3845 18.7323 31.9604 18.7198 36.5301 18.7511C37.4178 18.7573 38.2305 19.0824 38.9494 19.67C40.0246 20.5452 40.4497 21.6704 40.4497 23.0082C40.4497 23.9646 40.4497 24.9273 40.4497 25.8838C40.4497 26.2213 40.4809 26.2401 40.7747 26.0838C42.9689 24.9398 45.1631 23.7896 47.3573 22.6456C47.6636 22.4893 47.6636 22.4893 47.6636 22.8269C47.6449 25.2962 47.6449 27.7529 47.6511 30.2097Z" fill="#EF422F"/><path d="M30.26 30.0534C30.26 28.6031 30.2663 27.159 30.2538 25.7087C30.2538 25.4962 30.3038 25.4274 30.5226 25.4274C32.1667 25.4337 33.8108 25.4337 35.4611 25.4274C35.6486 25.4274 35.7174 25.4649 35.7111 25.665C35.6924 26.0526 35.6924 26.4339 35.7111 26.8215C35.7236 27.034 35.6736 27.1028 35.4423 27.1028C34.4609 27.0903 33.4857 27.109 32.5042 27.0965C32.2792 27.0965 32.2229 27.159 32.2292 27.3716C32.2417 27.8279 32.2417 28.2905 32.2292 28.7469C32.2229 28.9594 32.2979 29.0094 32.498 29.0032C33.4857 28.9969 34.4796 29.0032 35.4673 28.9969C35.6549 28.9969 35.7174 29.0344 35.7111 29.2345C35.6924 29.6408 35.6924 30.0471 35.7111 30.4534C35.7174 30.6535 35.6486 30.691 35.4611 30.691C34.4796 30.6847 33.5044 30.6972 32.523 30.6847C32.2854 30.6847 32.2292 30.7473 32.2354 30.9786C32.2542 31.5537 32.2479 32.1225 32.2354 32.6977C32.2292 32.9102 32.2667 33.004 32.5167 32.9977C33.4794 32.979 34.4484 32.9977 35.4111 32.979C35.6674 32.9727 35.7236 33.0602 35.7111 33.2978C35.6924 33.6916 35.6986 34.0917 35.7111 34.4855C35.7111 34.6293 35.6736 34.6856 35.5236 34.6793C33.8358 34.6731 32.1479 34.6731 30.4601 34.6793C30.2413 34.6793 30.26 34.5668 30.26 34.423C30.26 32.9727 30.26 31.5162 30.26 30.0534Z" fill="#050505"/><path d="M7.01786 25.1836C7.05537 24.3022 6.92409 23.202 7.07412 22.1142C7.32418 20.2826 9.01827 18.7886 10.8624 18.7511C11.9751 18.726 13.0878 18.7386 14.1943 18.7323C14.3944 18.7323 14.4944 18.7698 14.4319 19.0136C14.2756 19.6512 14.2631 20.2889 14.4381 20.9265C14.5006 21.1453 14.3819 21.164 14.2131 21.164C13.2629 21.1578 12.3189 21.1953 11.375 21.1515C10.206 21.0953 9.37459 21.7704 9.4121 23.1895C9.46211 24.8648 9.43085 26.5401 9.4246 28.2155C9.41835 28.9531 8.88074 29.4845 8.1931 29.4657C7.49296 29.447 7.01786 28.9406 7.01786 28.203C7.01161 27.2653 7.01786 26.3276 7.01786 25.1836Z" fill="#EF422F"/><path d="M24.8652 32.7226C25.3215 30.5534 26.1717 28.5155 26.7843 26.4151C26.7906 26.3839 26.8093 26.3588 26.8156 26.3276C26.9156 26.0338 26.9093 25.6274 27.1406 25.4774C27.3532 25.3399 27.7283 25.4399 28.0283 25.4399C28.3721 25.4399 28.716 25.4399 29.0598 25.4337C29.1973 25.4337 29.2661 25.4462 29.2036 25.6274C28.1158 28.5343 27.0344 31.4411 25.9592 34.3542C25.8654 34.6105 25.7529 34.7043 25.4716 34.6855C25.034 34.6543 24.5964 34.673 24.1588 34.6793C23.9963 34.6855 23.9275 34.6293 23.8712 34.473C22.9585 31.985 22.0459 29.5032 21.1269 27.0215C20.9519 26.5526 20.7831 26.0838 20.6018 25.6212C20.5393 25.4649 20.5706 25.4274 20.7393 25.4274C21.3332 25.4399 21.9271 25.4337 22.521 25.4337C22.6397 25.4337 22.7335 25.4399 22.7773 25.5899C23.3899 27.6404 24.0963 29.6595 24.6526 31.7287C24.7339 32.06 24.7964 32.3913 24.8652 32.7226Z" fill="#050505"/><path d="M21.4645 19.9575C21.4333 21.7079 20.1268 22.9519 18.3701 22.9144C16.8136 22.8831 15.5258 21.5079 15.5571 19.9138C15.5883 18.2322 16.9324 16.9632 18.6452 17.0007C20.1955 17.0382 21.4895 18.3947 21.4645 19.9575Z" fill="#EF422F"/><path d="M11.0999 30.0596C11.0999 28.6093 11.1061 27.1653 11.0936 25.715C11.0936 25.4649 11.1749 25.4212 11.3999 25.4274C11.8688 25.4399 12.3376 25.4462 12.8065 25.4212C13.0503 25.4087 13.094 25.4899 13.094 25.7212C13.0815 28.0342 13.094 30.3472 13.0815 32.6601C13.0815 32.9289 13.1378 33.0039 13.4191 32.9977C14.2755 32.9727 15.1257 32.9977 15.9821 32.9852C16.2072 32.9789 16.2697 33.0477 16.2572 33.2665C16.2384 33.6603 16.2447 34.0604 16.2572 34.4542C16.2634 34.6355 16.2009 34.6855 16.0259 34.6855C14.4506 34.6793 12.8815 34.6793 11.3062 34.6855C11.0561 34.6855 11.1061 34.5418 11.1061 34.4042C11.0999 32.9539 11.0999 31.5099 11.0999 30.0596Z" fill="#050505"/><path d="M17.5201 30.0596C17.5201 28.6093 17.5263 27.1653 17.5138 25.715C17.5138 25.4837 17.5576 25.4149 17.8014 25.4274C18.2702 25.4524 18.7391 25.4462 19.2079 25.4274C19.4267 25.4212 19.5142 25.4649 19.508 25.7087C19.5017 28.6156 19.5017 31.5162 19.508 34.423C19.508 34.6355 19.4392 34.6856 19.2454 34.6793C18.7578 34.6668 18.264 34.6543 17.7764 34.6793C17.5388 34.6918 17.5076 34.598 17.5076 34.398C17.5201 32.954 17.5201 31.5099 17.5201 30.0596Z" fill="#050505"/></svg>