<svg width="48" height="51" viewBox="0 0 48 51" fill="none" xmlns="http://www.w3.org/2000/svg"><path fill-rule="evenodd" clip-rule="evenodd" d="M35.3198 1.66016V7.76953H33.0786V2.94678H2.49023V43.8115H20.7852V47.7544C20.7857 48.752 20.9846 49.7396 21.3704 50.6597C21.416 50.7717 21.4617 50.8796 21.5156 50.9917H1.66016C1.21986 50.9917 0.797588 50.8168 0.486249 50.5055C0.174909 50.1941 0 49.7718 0 49.3315V1.66016C0 1.21986 0.174909 0.797588 0.486249 0.486249C0.797588 0.174909 1.21986 0 1.66016 0L33.6638 0C34.1041 0 34.5264 0.174909 34.8377 0.486249C35.1491 0.797588 35.324 1.21986 35.324 1.66016H35.3198ZM29.2852 12.887H43.5791C44.6252 12.8892 45.6279 13.3057 46.3676 14.0454C47.1074 14.7852 47.5239 15.7878 47.5261 16.834V47.053C47.5239 48.0991 47.1074 49.1018 46.3676 49.8415C45.6279 50.5813 44.6252 50.9978 43.5791 51H29.2852C28.239 50.9978 27.2363 50.5813 26.4966 49.8415C25.7569 49.1018 25.3403 48.0991 25.3381 47.053V16.8298C25.3392 15.7837 25.7556 14.7809 26.4957 14.0416C27.2357 13.3022 28.2391 12.887 29.2852 12.887ZM26.6995 45.5173H46.1731V17.1909H26.6995V45.5173ZM36.4321 46.7625C36.7531 46.7625 37.0668 46.8576 37.3337 47.0359C37.6006 47.2143 37.8086 47.4677 37.9314 47.7642C38.0542 48.0608 38.0864 48.3871 38.0238 48.7018C37.9611 49.0166 37.8066 49.3058 37.5796 49.5327C37.3527 49.7597 37.0635 49.9143 36.7487 49.9769C36.4339 50.0395 36.1076 50.0074 35.8111 49.8845C35.5146 49.7617 35.2611 49.5537 35.0828 49.2868C34.9045 49.02 34.8093 48.7062 34.8093 48.3853C34.8088 48.172 34.8504 47.9607 34.9317 47.7636C35.0131 47.5665 35.1326 47.3873 35.2834 47.2365C35.4342 47.0857 35.6133 46.9662 35.8105 46.8849C36.0076 46.8035 36.2189 46.7619 36.4321 46.7625ZM16.8672 45.4883C17.2427 45.4875 17.61 45.5981 17.9225 45.8062C18.2351 46.0143 18.4788 46.3105 18.6229 46.6572C18.767 47.004 18.8049 47.3857 18.7318 47.754C18.6588 48.1223 18.478 48.4607 18.2125 48.7262C17.947 48.9917 17.6087 49.1724 17.2403 49.2455C16.872 49.3185 16.4903 49.2806 16.1436 49.1366C15.7968 48.9925 15.5006 48.7487 15.2925 48.4362C15.0844 48.1236 14.9738 47.7564 14.9746 47.3809C14.9746 46.8789 15.174 46.3975 15.5289 46.0426C15.8839 45.6877 16.3652 45.4883 16.8672 45.4883Z" fill="#511BC9"/></svg>