<svg width="30" height="26" viewBox="0 0 30 26" fill="none" xmlns="http://www.w3.org/2000/svg">
  <g clip-path="url(#clip0_101_1452)">
    <path
      d="M16.7615 0.616227C17.0716 0.812536 17.3911 1.08551 17.7343 1.37823C18.1653 1.74588 18.6375 2.14837 19.1561 2.44516L19.1724 2.45445C19.6121 2.69723 20.2463 2.72162 20.9113 2.74601C22.1472 2.7919 23.4819 2.84184 24.3636 4.15154C25.136 5.29804 25.1935 6.19014 25.2487 7.06483L25.2539 7.13975C25.2818 7.57186 25.3335 7.98597 25.4868 8.43202C25.6413 8.88214 25.9009 9.37408 26.3464 9.96243C27.1549 11.0323 27.6468 11.9331 27.8332 12.7648C28.0296 13.6342 27.8977 14.4142 27.4522 15.2065C27.1311 15.7785 26.6414 16.1979 26.2093 16.5673C25.8835 16.846 25.5948 17.0929 25.5025 17.3072L25.4897 17.3333C25.2673 17.863 25.2597 18.3573 25.2522 18.8649C25.2417 19.5526 25.2307 20.264 24.7753 21.1608C24.4861 21.7317 24.1161 22.2068 23.6701 22.5878C23.2194 22.9729 22.6914 23.2615 22.0897 23.4549C21.5571 23.6263 21.0548 23.5909 20.5779 23.5566C20.1748 23.5275 19.7921 23.5002 19.4971 23.624C18.8866 23.8818 18.3384 24.3209 17.8238 24.7333C17.2552 25.188 16.7226 25.6149 16.1325 25.7985C15.7021 25.9326 15.2601 26 14.8205 26C14.3802 26 13.9382 25.9326 13.5073 25.799L13.4899 25.7927C12.9067 25.6062 12.3794 25.184 11.8172 24.7339C11.3026 24.3209 10.7543 23.8818 10.1439 23.6257C9.84593 23.5002 9.46435 23.5281 9.06244 23.5566C8.5856 23.5909 8.08379 23.6263 7.55062 23.4549C6.9495 23.2615 6.42155 22.9729 5.97085 22.5878C5.5248 22.2068 5.15483 21.7317 4.86559 21.1608C4.41025 20.264 4.39921 19.5526 4.38876 18.8649C4.38121 18.3509 4.37308 17.8502 4.13901 17.3072L4.13088 17.2869C4.02982 17.0795 3.74814 16.8379 3.43102 16.5673C2.99949 16.1979 2.5093 15.7791 2.18811 15.2065C1.74322 14.4142 1.6108 13.6342 1.80711 12.7648C1.99413 11.9331 2.48548 11.0323 3.29395 9.96243C3.73943 9.3735 3.99962 8.88156 4.15412 8.43202C4.30745 7.98597 4.35856 7.57186 4.38702 7.13975L4.39166 7.06366C4.44742 6.18956 4.50492 5.29804 5.2768 4.15154C6.15845 2.84184 7.49312 2.7919 8.72964 2.74601C9.40279 2.72162 10.0434 2.69664 10.4842 2.44516L10.5022 2.43529C11.011 2.14198 11.4791 1.74297 11.9066 1.37765C12.2493 1.08551 12.5693 0.812536 12.8789 0.616227C13.5259 0.205602 14.1706 0 14.8205 0C15.4698 0 16.1151 0.205602 16.7615 0.616227Z"
      fill="#CF9114" />
    <path fill-rule="evenodd" clip-rule="evenodd"
      d="M16.5743 0.911279C17.2591 1.34572 18.0304 2.20414 18.9829 2.74834C20.3222 3.51383 22.8034 2.45794 24.0742 4.34554C24.8153 5.44615 24.8501 6.30922 24.9053 7.16183C24.9651 8.08181 25.1266 8.92803 26.0675 10.1727C27.6263 12.2339 27.951 13.6064 27.1478 15.0357C26.6006 16.0103 25.4478 16.5516 25.1806 17.1696C24.6132 18.4827 25.241 19.473 24.4639 21.004C23.9243 22.0663 23.092 22.7661 21.9833 23.1233C21.0482 23.4242 20.1102 22.9886 19.3616 23.3034C18.0461 23.8563 17.0756 25.141 16.029 25.4657C15.2373 25.7114 14.4027 25.7114 13.6117 25.4657C12.5645 25.141 11.5946 23.8563 10.2791 23.3034C9.53041 22.9886 8.59185 23.4242 7.65734 23.1233C6.5486 22.7661 5.71573 22.0663 5.17675 21.004C4.39906 19.473 5.02691 18.4827 4.45947 17.1696C4.19288 16.5516 3.04 16.0103 2.49231 15.0357C1.68964 13.6064 2.01431 12.2339 3.57259 10.1727C4.51406 8.92803 4.67494 8.08181 4.73477 7.16183C4.78994 6.30922 4.82537 5.44615 5.56589 4.34554C6.83667 2.45794 9.31784 3.51383 10.6577 2.74834C11.6103 2.20414 12.381 1.34572 13.0663 0.911279C14.2453 0.16263 15.3953 0.16263 16.5743 0.911279Z"
      fill="url(#paint0_linear_101_1452)" />
    <path
      d="M14.8199 3.17639C17.5334 3.17639 19.9907 4.27642 21.7691 6.05483C23.5469 7.83323 24.647 10.29 24.647 13.0035C24.647 15.717 23.5469 18.1743 21.7691 19.9522C19.9907 21.7306 17.5334 22.8306 14.8199 22.8306C12.1064 22.8306 9.64903 21.7306 7.87062 19.9522C6.0928 18.1743 4.99219 15.717 4.99219 13.0035C4.99219 10.29 6.0928 7.83323 7.8712 6.05483C9.64903 4.27642 12.1064 3.17639 14.8199 3.17639Z"
      fill="black" />
    <path fill-rule="evenodd" clip-rule="evenodd"
      d="M14.8195 3.29138C20.1832 3.29138 24.5316 7.63982 24.5316 13.0035C24.5316 18.3677 20.1832 22.7156 14.8195 22.7156C9.45586 22.7156 5.10742 18.3677 5.10742 13.0035C5.10742 7.63982 9.45586 3.29138 14.8195 3.29138Z"
      fill="url(#paint1_linear_101_1452)" />
    <path
      d="M9.13728 17.6423C9.17504 17.6388 9.21337 17.6539 9.23834 17.6865L9.60657 18.165C9.6449 18.215 9.63619 18.287 9.58624 18.3253L8.92239 18.8359C8.88348 18.8655 8.8312 18.8666 8.79229 18.8428C8.60134 18.7246 8.43331 18.5729 8.29629 18.395C8.20104 18.2719 8.13483 18.1534 8.09882 18.0425C8.05932 17.9223 8.0541 17.8084 8.08197 17.7021L8.08314 17.6981C8.09707 17.6475 8.11682 17.5982 8.1418 17.5506C8.16619 17.5041 8.19813 17.457 8.23531 17.4129C8.26957 17.3717 8.31139 17.3275 8.3596 17.2828C8.40722 17.2392 8.46065 17.1939 8.51873 17.1498C8.57739 17.1051 8.63431 17.0644 8.68891 17.0302C8.74467 16.9947 8.79752 16.9657 8.84572 16.9442C8.898 16.921 8.95201 16.903 9.00602 16.8919C9.05946 16.8809 9.11463 16.8757 9.16981 16.8768C9.28248 16.8791 9.394 16.9175 9.50493 16.993L9.51016 16.9965C9.61122 17.0662 9.71344 17.1684 9.81508 17.3008L9.88477 17.4007L9.96202 17.5262C10.0096 17.6139 10.0375 17.6667 10.0759 17.7562C10.095 17.8125 10.0671 17.8735 10.0143 17.8973L9.66813 18.0698C9.6118 18.0977 9.54268 18.075 9.5148 18.0187L9.42362 17.859L9.33011 17.7242L9.2488 17.6272L9.20698 17.5895L9.13728 17.6423ZM10.6514 18.3271L9.98641 19.1541L10.077 19.2238L10.7409 18.3985C10.7503 18.3868 10.7619 18.3771 10.7751 18.3699C10.7883 18.3626 10.8028 18.3581 10.8177 18.3565C10.8326 18.3549 10.8478 18.3562 10.8622 18.3604C10.8766 18.3647 10.89 18.3717 10.9017 18.3811L11.2926 18.6953C11.3414 18.7348 11.349 18.8068 11.3095 18.8562L10.7583 19.5421C10.713 19.599 10.6683 19.6501 10.627 19.6943C10.5841 19.7396 10.5434 19.7779 10.5051 19.8093C10.465 19.8424 10.422 19.8703 10.3773 19.8923C10.2844 19.9382 10.185 19.9591 10.0817 19.9458C9.97189 19.9312 9.87199 19.8796 9.78023 19.8197C9.72912 19.7866 9.67452 19.7471 9.61819 19.7018C9.56185 19.6565 9.51132 19.6118 9.46834 19.5688C9.39167 19.4945 9.31733 19.4039 9.28132 19.3022C9.24706 19.2041 9.24647 19.1036 9.27029 19.0037C9.28248 18.9555 9.30049 18.9073 9.3243 18.8603C9.34579 18.8179 9.37425 18.7696 9.41026 18.7174C9.44395 18.6674 9.4846 18.6128 9.53048 18.5553L10.0817 17.8688C10.1212 17.82 10.1938 17.8125 10.2425 17.852L10.634 18.1656C10.6828 18.2051 10.6909 18.2777 10.6514 18.3271ZM11.026 20.5457L10.5492 20.3268C10.5218 20.3141 10.5005 20.2912 10.4899 20.2629C10.4794 20.2346 10.4804 20.2033 10.4929 20.1758L10.508 20.1508L11.5313 18.8963C11.5662 18.8533 11.6266 18.8422 11.6736 18.8678L12.3712 19.1878C12.42 19.2099 12.4449 19.2622 12.4362 19.3121L12.1522 20.9058C12.1412 20.968 12.0808 21.0092 12.0186 20.9982L11.9809 20.9842L11.511 20.7688C11.4875 20.7579 11.4683 20.7395 11.4566 20.7164C11.4449 20.6933 11.4414 20.6669 11.4465 20.6416L11.4791 20.4807L11.2688 20.3837L11.1678 20.5138C11.1341 20.5579 11.0737 20.5701 11.026 20.5457ZM13.811 21.3949L13.2668 21.3048C13.2191 21.2967 13.1831 21.2601 13.1732 21.2148L13.1163 20.9941L13.089 21.1591C13.0866 21.1739 13.0813 21.188 13.0734 21.2008C13.0655 21.2136 13.0551 21.2246 13.0429 21.2334C13.0308 21.2421 13.017 21.2484 13.0023 21.2517C12.9877 21.2551 12.9726 21.2556 12.9578 21.2531L12.4629 21.1712C12.433 21.1663 12.4063 21.1497 12.3885 21.1251C12.3708 21.1006 12.3635 21.0699 12.3683 21.04L12.625 19.4945C12.6274 19.4796 12.6326 19.4654 12.6405 19.4526C12.6484 19.4398 12.6588 19.4287 12.671 19.4199C12.6831 19.4111 12.697 19.4048 12.7116 19.4014C12.7262 19.3979 12.7414 19.3974 12.7562 19.3998L13.5421 19.5299C13.7477 19.5653 13.8963 19.6484 13.9875 19.7773C14.0787 19.9074 14.1066 20.0788 14.0717 20.289L14.0712 20.2937C14.0479 20.4325 14.0055 20.5469 13.9445 20.6352C13.901 20.6979 13.8487 20.7478 13.7883 20.7844L13.9382 21.2468C13.9443 21.2654 13.9455 21.2853 13.9416 21.3046C13.9378 21.3238 13.9291 21.3417 13.9163 21.3566C13.9035 21.3715 13.8871 21.3829 13.8686 21.3896C13.8502 21.3963 13.8303 21.3981 13.811 21.3949ZM14.724 21.4198L14.2036 21.4285C14.1403 21.4291 14.088 21.3792 14.0874 21.3164L14.0915 21.2845L14.4708 19.7134C14.4829 19.6623 14.5288 19.6275 14.5794 19.6263L15.3541 19.613C15.4087 19.6124 15.4552 19.6501 15.4674 19.7007L15.8984 21.2572C15.9152 21.3182 15.8798 21.3809 15.8188 21.3978L15.7903 21.4018L15.2612 21.4105C15.206 21.4117 15.159 21.3728 15.1474 21.3211L15.1085 21.1649L14.8773 21.1689L14.843 21.3292C14.8308 21.385 14.7797 21.4233 14.724 21.4198ZM17.0425 21.029L16.7597 20.7995L16.827 21.0295C16.8451 21.0899 16.8102 21.1538 16.7498 21.1718L16.2683 21.313C16.2079 21.331 16.144 21.2961 16.126 21.2357L15.684 19.732C15.6666 19.6716 15.7015 19.6077 15.7619 19.5897L16.2143 19.4567C16.2538 19.4457 16.2945 19.4562 16.3229 19.4817L16.6063 19.7111L16.5384 19.4811C16.5204 19.4207 16.5552 19.3568 16.6162 19.3388L17.0971 19.1971C17.136 19.1861 17.1767 19.196 17.2051 19.2209C17.2121 19.1901 17.2324 19.1623 17.2626 19.146L18.3476 18.5699C18.3627 18.5617 18.3789 18.5571 18.3952 18.5565L18.4196 18.5246L19.2403 17.7875C19.2873 17.7457 19.3599 17.7492 19.4023 17.7962L19.6346 18.1511C19.6613 18.1923 19.6579 18.2452 19.6294 18.2824C19.6677 18.2754 19.7084 18.2876 19.7363 18.3184L19.9796 18.5884C19.9988 18.6099 20.0087 18.6372 20.0087 18.6645L20.0284 18.6465C20.0755 18.6041 20.1481 18.6082 20.1904 18.6547L20.4588 18.9532C20.5012 19.0002 20.4971 19.0734 20.4506 19.1152L19.6201 19.861C19.5731 19.9034 19.5005 19.8999 19.4581 19.8528L18.703 19.0118C18.7083 19.0577 18.6862 19.1036 18.6432 19.1263L18.4231 19.2436L18.9162 20.1717C18.9458 20.2275 18.9243 20.2971 18.8686 20.3268L18.426 20.562C18.3702 20.5916 18.3005 20.5701 18.2709 20.5144L17.7778 19.5857L17.5583 19.7024C17.5025 19.732 17.4328 19.7105 17.4032 19.6548L17.2859 19.4341L17.6814 20.7786C17.6988 20.839 17.664 20.9029 17.6036 20.9203L17.1511 21.0533C17.1116 21.065 17.071 21.0545 17.0425 21.029ZM21.0669 17.4623L21.0843 17.4402C21.1238 17.3914 21.1964 17.3839 21.2452 17.4234L21.5582 17.6743C21.6076 17.7138 21.6151 17.7858 21.5757 17.8351L20.8775 18.7052C20.838 18.7545 20.7654 18.7621 20.7167 18.7226L19.4941 17.7422C19.4824 17.7328 19.4726 17.7212 19.4654 17.708C19.4582 17.6948 19.4537 17.6803 19.452 17.6654C19.4504 17.6504 19.4518 17.6353 19.456 17.6209C19.4602 17.6065 19.4672 17.593 19.4766 17.5813L20.1672 16.7206C20.2067 16.6718 20.2787 16.6643 20.3281 16.7037L20.6144 17.0156C20.6481 17.0522 20.6528 17.1051 20.6307 17.1463C20.6493 17.1396 20.6693 17.1377 20.6888 17.1409C20.7083 17.144 20.7267 17.1521 20.7422 17.1643L21.0262 17.392C21.0489 17.41 21.0622 17.4356 21.0669 17.4623Z"
      fill="black" />
    <path
      d="M8.86853 18.1319L8.92255 18.0913L8.84472 17.9896L9.14906 17.7556L9.5167 18.2347L8.85285 18.7452C8.67358 18.6347 8.51594 18.4924 8.38763 18.3253C8.21339 18.0982 8.14834 17.9008 8.19365 17.7312C8.21688 17.6435 8.26044 17.5616 8.32374 17.4855C8.38763 17.4088 8.47591 17.3275 8.58917 17.2404C8.70242 17.1533 8.80406 17.0894 8.89409 17.0487C8.98411 17.0081 9.0753 16.9889 9.16822 16.9912C9.34653 16.993 9.5318 17.1196 9.72463 17.3699C9.76412 17.4216 9.81059 17.4925 9.86402 17.5836C9.91687 17.6748 9.95172 17.7445 9.96798 17.7933L9.61834 17.9676C9.55387 17.8456 9.48882 17.7416 9.42203 17.6545C9.35524 17.568 9.30181 17.5122 9.26173 17.4872C9.22108 17.4623 9.181 17.4652 9.14151 17.4959L8.57871 17.9281L8.67977 18.0593C8.71636 18.1069 8.74831 18.1383 8.77502 18.1523C8.80174 18.1662 8.83252 18.1598 8.86853 18.1319ZM10.5627 18.2551L9.82627 19.1716L9.96508 19.2831C10.0144 19.3226 10.0534 19.3435 10.0818 19.3464C10.1097 19.3481 10.1416 19.3278 10.1771 19.2831L10.8305 18.4699L11.2213 18.7842L10.6702 19.4701C10.5813 19.581 10.5023 19.6646 10.4332 19.7204C10.3647 19.7767 10.2921 19.8128 10.2148 19.8284C10.1387 19.8435 10.0586 19.8337 9.97611 19.7971C9.89364 19.7611 9.79897 19.6995 9.69094 19.6124C9.58233 19.5253 9.50218 19.4463 9.44991 19.3737C9.39706 19.3016 9.37034 19.2267 9.36918 19.1483C9.36744 19.0699 9.38718 18.9915 9.42726 18.9119C9.46675 18.8329 9.5318 18.7377 9.62067 18.6268L10.1718 17.9408L10.5627 18.2551ZM11.0785 20.4441L10.5976 20.2228L11.6204 18.9683L12.3243 19.2918L12.0397 20.8855L11.5588 20.6648L11.6105 20.415L11.2347 20.242L11.0785 20.4441ZM11.7592 19.5618L11.4827 19.9179L11.6924 20.0137L11.7841 19.5735L11.7592 19.5618ZM13.8303 21.2822L13.2861 21.1916L13.1595 20.6985L13.0532 20.6805L12.9771 21.1405L12.4823 21.0586L12.739 19.5125L13.5178 19.642C13.8721 19.7007 14.0196 19.9109 13.9598 20.2716C13.9186 20.519 13.8152 20.67 13.6485 20.7234L13.8303 21.2822ZM13.1676 19.9905L13.1165 20.2995L13.2303 20.3186C13.2896 20.3285 13.3337 20.3297 13.3633 20.3215C13.3924 20.314 13.411 20.2873 13.4179 20.2431L13.4348 20.1415C13.4423 20.0968 13.433 20.066 13.4086 20.0491C13.3831 20.0323 13.3407 20.0195 13.2814 20.0096L13.1676 19.9905ZM14.7317 21.3054L14.2026 21.3141L14.5824 19.7407L15.3566 19.7274L15.7893 21.2874L15.2602 21.2967L15.1986 21.0493L14.7851 21.0562L14.7317 21.3054ZM14.964 20.2158L14.8688 20.6561L15.0988 20.652L14.9913 20.2152L14.964 20.2158ZM17.1199 20.9436L16.5949 20.5178C16.5769 20.5039 16.5577 20.4679 16.5368 20.4092L16.5275 20.4121L16.718 21.062L16.2365 21.2032L15.7951 19.6995L16.247 19.5671L16.772 19.9928C16.79 20.0067 16.8098 20.0427 16.8301 20.1008L16.84 20.0985L16.6489 19.4486L17.1298 19.3075L17.5718 20.8106L17.1199 20.9436ZM18.5905 19.0252L18.2687 19.1959L18.8153 20.2257L18.3727 20.4609L17.8262 19.4306L17.505 19.6013L17.3168 19.2471L18.4017 18.6709L18.5905 19.0252ZM19.895 18.6651L19.5221 19.0002L19.6493 19.1419L20.1058 18.7319L20.3741 19.0304L19.5442 19.7762L18.497 18.6099L19.3177 17.8729L19.539 18.2132L19.1382 18.5733L19.2793 18.7301L19.6516 18.395L19.895 18.6651ZM20.9549 17.4808L20.6413 17.8723L20.79 17.9914L21.1745 17.5122L21.4869 17.7631L20.7888 18.6337L19.5668 17.6533L20.2568 16.7926L20.5304 17.0923L20.1935 17.5128L20.3579 17.6446L20.6709 17.2538L20.9549 17.4808Z"
      fill="white" />
    <path
      d="M14.8191 7.4592C16.3489 7.4592 17.7353 8.08007 18.7383 9.08311C19.7425 10.0879 20.3628 11.4743 20.3628 13.0035C20.3628 14.5327 19.7425 15.9191 18.7389 16.9227C17.7347 17.9269 16.3489 18.5472 14.8191 18.5472C13.2893 18.5472 11.9035 17.9263 10.8999 16.9239C9.89626 15.9197 9.27539 14.5339 9.27539 13.0035C9.27539 11.4731 9.89626 10.0873 10.8993 9.08427C11.9035 8.08007 13.2893 7.4592 14.8191 7.4592Z"
      fill="black" />
    <path fill-rule="evenodd" clip-rule="evenodd"
      d="M14.8204 7.71243C17.7429 7.71243 20.112 10.0815 20.112 13.0035C20.112 15.9261 17.7429 18.2946 14.8204 18.2946C11.8984 18.2946 9.5293 15.9261 9.5293 13.0035C9.5293 10.0815 11.8984 7.71243 14.8204 7.71243Z"
      fill="url(#paint2_linear_101_1452)" />
    <path fill-rule="evenodd" clip-rule="evenodd"
      d="M29.375 16.5162L25.2519 18.5995C25.3036 17.3903 25.6254 16.9134 26.1365 16.5196L3.52312 16.5202C4.05804 16.9576 4.44833 17.5999 4.39954 18.6065L0.372291 16.5185C0.163204 16.4976 0 16.321 0 16.1073C0 16.0788 0.00290399 16.0509 0.00813117 16.0248L0.924049 9.77775C0.986776 9.35202 1.30738 9.00296 1.75459 9.00296H27.9846C28.4266 9.00296 28.7518 9.3555 28.8134 9.77658L29.7322 16.0475C29.7653 16.2728 29.6091 16.4825 29.3837 16.5156L29.375 16.5162Z"
      fill="#2A2A2A" />
    <path fill-rule="evenodd" clip-rule="evenodd"
      d="M1.75512 9.41589H27.9851C28.2163 9.41589 28.3737 9.61801 28.4056 9.83639L29.3244 16.1073H0.414062L1.33288 9.83755C1.36657 9.60756 1.52339 9.41589 1.75512 9.41589Z"
      fill="url(#paint3_linear_101_1452)" />
    <path
      d="M3.99525 14.0913H3.10547L3.26693 11.4313H4.378L4.70963 12.7845H4.73983L5.07147 11.4313H6.18254L6.34458 14.0913H5.4548L5.40369 12.8019H5.37407L5.05056 14.0913H4.39949L4.07134 12.8019H4.04578L3.99525 14.0913ZM6.5043 12.7636C6.5043 12.2781 6.5949 11.9244 6.77611 11.7013C6.9579 11.4783 7.28605 11.3674 7.7594 11.3674C8.23333 11.3674 8.56149 11.4783 8.74269 11.7013C8.92448 11.9244 9.01509 12.2781 9.01509 12.7636C9.01509 13.0046 8.99592 13.2073 8.95759 13.3723C8.91926 13.5367 8.85363 13.6801 8.75954 13.8021C8.66603 13.924 8.53709 14.0135 8.37215 14.0698C8.20778 14.1267 8.00392 14.1552 7.7594 14.1552C7.51547 14.1552 7.31161 14.1267 7.14666 14.0698C6.9823 14.0135 6.85278 13.924 6.75927 13.8021C6.66576 13.6801 6.59955 13.5367 6.56122 13.3723C6.52288 13.2073 6.5043 13.0046 6.5043 12.7636ZM7.41906 12.3205V13.4275H7.77218C7.88834 13.4275 7.97314 13.4135 8.02541 13.3868C8.07826 13.3601 8.1044 13.2985 8.1044 13.2021V12.0951H7.74663C7.63337 12.0951 7.55032 12.109 7.49746 12.1358C7.44519 12.1625 7.41906 12.224 7.41906 12.3205ZM10.8434 14.0913L10.1924 13.1464C10.1697 13.115 10.1552 13.047 10.15 12.9419H10.1325V14.0913H9.28109V11.4313H10.0814L10.7325 12.3762C10.7552 12.407 10.7697 12.4755 10.7755 12.5807H10.7923V11.4313H11.6438V14.0913H10.8434ZM13.7399 13.0865H12.889V13.4106H13.9315V14.0913H12.0376V11.4313H13.9106L13.8038 12.112H12.889V12.4697H13.7399V13.0865ZM14.9898 11.4313L15.2238 12.3675H15.2534L15.4916 11.4313H16.4325L15.6664 13.3676V14.0913H14.8149V13.3676L14.0489 11.4313H14.9898ZM17.22 14.0913V11.4313H18.5988C18.8544 11.4313 19.0368 11.4806 19.146 11.5799C19.2551 11.6793 19.3097 11.8245 19.3097 12.0144C19.3097 12.2043 19.2749 12.3512 19.2052 12.4546C19.1361 12.5586 19.0431 12.626 18.9264 12.6567V12.6823C19.2702 12.7421 19.4416 12.9762 19.4416 13.3845C19.4416 13.5976 19.3852 13.7684 19.2714 13.8973C19.1581 14.0268 18.9833 14.0913 18.7481 14.0913H17.22ZM18.4031 13.0319H18.0715V13.4658H18.399C18.5181 13.4658 18.5779 13.3932 18.5779 13.2486C18.5779 13.104 18.5198 13.0319 18.4031 13.0319ZM18.3392 12.0144H18.0715V12.4099H18.3352C18.4432 12.4099 18.4966 12.3443 18.4966 12.2118C18.4966 12.08 18.4443 12.0144 18.3392 12.0144ZM20.3424 14.0913H19.4439L20.1333 11.4313H21.4488L22.1382 14.0913H21.2403L21.1422 13.6702H20.44L20.3424 14.0913ZM20.7681 12.2484L20.5933 12.993H20.9848L20.8146 12.2484H20.7681ZM24.0351 13.3293L24.0984 14.0443C23.9195 14.118 23.6953 14.1552 23.4258 14.1552C23.1564 14.1552 22.9403 14.1267 22.7771 14.0698C22.6139 14.0135 22.4855 13.924 22.392 13.8021C22.2979 13.6801 22.2329 13.5367 22.1957 13.3723C22.1591 13.2073 22.1405 13.0046 22.1405 12.7636C22.1405 12.522 22.1591 12.3187 22.1957 12.1526C22.2329 11.9865 22.2979 11.8425 22.392 11.7205C22.5732 11.4853 22.9072 11.3674 23.3922 11.3674C23.4996 11.3674 23.6268 11.3778 23.7732 11.3993C23.9189 11.4202 24.0276 11.4469 24.0984 11.4783L23.9712 12.1294C23.7865 12.0893 23.6175 12.0696 23.4642 12.0696C23.3114 12.0696 23.2046 12.0841 23.1453 12.112C23.0855 12.1404 23.0559 12.1973 23.0559 12.2827V13.3978C23.1662 13.4205 23.2783 13.4315 23.3922 13.4315C23.6332 13.4315 23.8475 13.3978 24.0351 13.3293ZM25.2159 12.9338V14.0913H24.3644V11.4313H25.2159V12.5168H25.2327C25.2385 12.4314 25.253 12.3634 25.2757 12.3123L25.6927 11.4313H26.6121L25.9738 12.7381L26.6336 14.0913H25.7142L25.2757 13.1382C25.253 13.0865 25.2385 13.0186 25.2327 12.9338H25.2159ZM10.1755 6.59379L10.1442 6.61528C10.0919 6.65071 10.0367 6.69427 9.97921 6.74538C9.91997 6.79765 9.8555 6.86038 9.78639 6.9324C9.74109 6.97944 9.66558 6.98118 9.61854 6.93588L9.302 6.6118C9.28124 6.59025 9.26935 6.56167 9.2687 6.53175C9.26806 6.50183 9.2787 6.47276 9.29852 6.45034C9.38041 6.34753 9.46521 6.25403 9.55349 6.17039C9.64409 6.08443 9.73934 6.00719 9.83808 5.93981C9.92113 5.8829 9.99489 5.83643 10.0599 5.79926C10.1273 5.76151 10.1866 5.73363 10.2371 5.71621C10.2853 5.69936 10.33 5.68717 10.3707 5.67962C10.4166 5.67149 10.4578 5.66858 10.4938 5.67149L10.5054 5.67265C10.5821 5.68252 10.6535 5.70982 10.7192 5.75454C10.7836 5.79868 10.8423 5.85908 10.8951 5.93633C10.9631 6.03623 11.0014 6.13787 11.009 6.24183C11.0125 6.28771 11.0101 6.33418 11.0014 6.38006C11.0601 6.38412 11.1158 6.39632 11.1681 6.41781C11.2727 6.46021 11.3621 6.53571 11.4364 6.64432C11.4701 6.69311 11.4974 6.74248 11.5195 6.79126C11.5416 6.84121 11.5578 6.89116 11.5671 6.94053C11.5758 6.98815 11.5799 7.03404 11.5787 7.0776C11.5776 7.12406 11.5712 7.16762 11.5596 7.20828C11.5479 7.24835 11.5305 7.28785 11.5085 7.32734C11.487 7.36567 11.4608 7.40401 11.4295 7.44176L11.4208 7.45163C11.376 7.50332 11.3209 7.55676 11.2546 7.61251C11.1861 7.67001 11.1042 7.73099 11.0101 7.79546C10.9152 7.86027 10.8164 7.91942 10.7145 7.97261C10.6113 8.0269 10.505 8.07519 10.3962 8.11722C10.3376 8.13988 10.2719 8.11258 10.2458 8.05624L10.0367 7.60206C10.0302 7.58791 10.0265 7.57262 10.0259 7.55704C10.0252 7.54147 10.0277 7.52593 10.0331 7.51131C10.0385 7.49669 10.0467 7.48328 10.0573 7.47184C10.0679 7.4604 10.0806 7.45117 10.0948 7.44466L10.1035 7.44118C10.1906 7.40807 10.2685 7.37438 10.337 7.3407C10.4044 7.30759 10.4636 7.27391 10.513 7.23964L10.5484 7.21583L10.3451 7.32676C10.2911 7.35638 10.2243 7.33954 10.19 7.28959L9.94553 6.9324C9.91068 6.88071 9.92171 6.81101 9.96992 6.77268L10.1755 6.59379ZM11.7663 6.93414C11.717 6.89871 11.6717 6.85806 11.6304 6.81275L11.624 6.8052C11.5845 6.76164 11.5485 6.71344 11.5172 6.66233C11.4841 6.61005 11.4515 6.54849 11.4184 6.47937C11.3865 6.41142 11.3545 6.33592 11.3226 6.25344C11.2918 6.17213 11.2651 6.09489 11.2436 6.02171C11.2215 5.94794 11.2047 5.88057 11.1942 5.81959C11.1833 5.75787 11.178 5.69526 11.1786 5.63257C11.1791 5.56868 11.1855 5.50886 11.1977 5.45136C11.2116 5.38833 11.236 5.32806 11.2697 5.27306C11.3023 5.21904 11.3447 5.1691 11.3964 5.12321C11.4463 5.07965 11.5044 5.039 11.57 5.00183C11.6345 4.96524 11.7077 4.93155 11.7896 4.90019C11.8697 4.86998 11.9464 4.84617 12.0201 4.82991C12.0939 4.81365 12.1642 4.80494 12.2292 4.80494C12.3675 4.80377 12.4894 4.84094 12.5951 4.91587C12.6445 4.9513 12.6904 4.99195 12.7322 5.03725C12.7729 5.08256 12.8106 5.13309 12.8449 5.18884C12.8768 5.24111 12.9093 5.30268 12.9419 5.37237C12.975 5.44265 13.0069 5.51815 13.0377 5.59889C13.0691 5.68136 13.0964 5.75919 13.1178 5.8312C13.1393 5.90264 13.1556 5.96943 13.1672 6.031C13.1788 6.09431 13.1841 6.15703 13.1835 6.21802C13.1829 6.28074 13.1759 6.34115 13.1631 6.39981C13.1341 6.52642 13.0685 6.63561 12.9651 6.72738L12.9581 6.73318C12.9105 6.77442 12.8553 6.81275 12.7926 6.84818C12.7281 6.88477 12.655 6.91846 12.5736 6.94924C12.4935 6.98002 12.4162 7.00384 12.3425 7.0201C12.2681 7.03636 12.1979 7.04507 12.1328 7.04565C12.0631 7.04623 11.9981 7.03752 11.9382 7.01952L11.9319 7.01719C11.8726 6.99861 11.8174 6.97073 11.7663 6.93414ZM11.9981 5.63257L12.2548 6.30223L12.2612 6.29933C12.2978 6.28539 12.3274 6.27203 12.3489 6.25983L12.3704 6.24648C12.3684 6.23698 12.3657 6.22766 12.3622 6.2186L12.1049 5.54894L12.0852 5.55707C12.048 5.57101 12.0196 5.58378 11.9998 5.59482L11.9882 5.60179C11.9899 5.60992 11.9934 5.62038 11.9981 5.63257ZM13.7033 6.39109L13.7015 4.52499C13.7015 4.45936 13.755 4.40651 13.82 4.40651L14.6564 4.40593C14.837 4.40535 14.9903 4.42509 15.117 4.46401C15.254 4.5064 15.3609 4.57203 15.4387 4.6609C15.5136 4.74627 15.5694 4.85779 15.6054 4.99544C15.6397 5.12437 15.6565 5.27828 15.6565 5.45659C15.6565 5.62618 15.6414 5.77371 15.6112 5.89916L16.2745 4.60049C16.2995 4.55113 16.3541 4.52731 16.4057 4.53835L17.3066 4.73872C17.3606 4.75034 17.3983 4.79855 17.3995 4.8514L17.4669 6.7779C17.4686 6.84295 17.4175 6.89813 17.3519 6.89987C17.3414 6.90045 17.331 6.89929 17.3211 6.89697L16.7072 6.76048C16.6804 6.75449 16.6565 6.73942 16.6396 6.71783C16.6226 6.69623 16.6137 6.66944 16.6143 6.642L16.6125 6.4364L16.3151 6.37077L16.2251 6.55894C16.2135 6.58321 16.1941 6.60285 16.17 6.61466C16.1458 6.62647 16.1184 6.62976 16.0921 6.62399L15.477 6.48693C15.4589 6.48292 15.442 6.47472 15.4277 6.46297C15.4133 6.45123 15.4019 6.43628 15.3944 6.41932C15.3869 6.40237 15.3835 6.38388 15.3844 6.36536C15.3853 6.34684 15.3906 6.32879 15.3998 6.31269L15.4178 6.27668C15.3429 6.35392 15.243 6.41142 15.1187 6.45034L15.1129 6.45208C14.9874 6.48983 14.8358 6.509 14.6581 6.509L13.8218 6.51016C13.7561 6.51016 13.7033 6.45672 13.7033 6.39109ZM14.6657 5.12089H14.5367L14.5373 5.79461H14.6663C14.7023 5.79403 14.7313 5.79229 14.7528 5.78881L14.7789 5.783C14.7801 5.77603 14.7807 5.76616 14.7807 5.75454L14.7801 5.16038L14.7778 5.13134L14.7534 5.12612C14.729 5.12263 14.6999 5.12089 14.6657 5.12089ZM18.6691 5.41477L18.6075 5.6558L18.7766 5.47227C18.8137 5.43162 18.8736 5.42348 18.92 5.44846L19.5008 5.76209C19.5186 5.77163 19.5336 5.78554 19.5445 5.8025C19.5554 5.81946 19.5617 5.83891 19.563 5.85902C19.5643 5.87913 19.5604 5.89923 19.5518 5.91743C19.5431 5.93563 19.53 5.95133 19.5136 5.96305L18.42 6.88245L18.1894 7.30992C18.158 7.36741 18.086 7.3889 18.0285 7.35812L17.5029 7.07411C17.4891 7.06673 17.477 7.05671 17.4671 7.04462C17.4572 7.03253 17.4499 7.01862 17.4454 7.00367C17.4409 6.98873 17.4394 6.97305 17.441 6.95753C17.4426 6.94201 17.4472 6.92696 17.4547 6.91323L17.6852 6.48634L17.8548 5.05816C17.8585 5.02684 17.8745 4.99826 17.8992 4.97867C17.9239 4.95908 17.9553 4.95007 17.9867 4.95362C18.0041 4.95594 18.0204 4.96175 18.0343 4.96988L18.6099 5.28119C18.6592 5.30733 18.6819 5.36308 18.6691 5.41477ZM18.5204 7.39123L18.8991 7.07585C18.9496 7.03404 19.024 7.04101 19.0658 7.09096L19.0716 7.09851C19.1123 7.15484 19.1523 7.20711 19.1918 7.25474C19.1419 7.16588 19.114 7.0805 19.1099 6.99919C19.1053 6.91555 19.1204 6.83134 19.1552 6.74712C19.1883 6.66813 19.2395 6.58798 19.308 6.50841C19.3986 6.40213 19.488 6.3214 19.5763 6.2668C19.6727 6.2064 19.7691 6.1762 19.865 6.17562C19.9567 6.17504 20.0549 6.20059 20.1577 6.25112C20.2535 6.29875 20.3558 6.36844 20.4638 6.46079C20.5672 6.54965 20.6624 6.63909 20.7472 6.72912C20.8337 6.8203 20.9104 6.91149 20.9784 7.00384C21.0155 7.05436 21.0062 7.12522 20.9586 7.1653L20.5921 7.47893C20.5422 7.52133 20.4673 7.51552 20.4249 7.46557L20.3621 7.39355C20.4098 7.48067 20.4365 7.56372 20.4435 7.64213C20.4504 7.72925 20.4382 7.81521 20.4063 7.90059C20.3755 7.9819 20.3273 8.06089 20.2611 8.13813C20.2164 8.19099 20.1711 8.23687 20.1252 8.2752C20.0811 8.31347 20.033 8.34677 19.9817 8.37452C19.9353 8.39949 19.89 8.41866 19.8452 8.43318C19.7993 8.44828 19.7546 8.45699 19.7122 8.45931C19.6681 8.46164 19.6222 8.45757 19.5757 8.44654L19.5699 8.44538C19.5275 8.43492 19.4834 8.41866 19.4381 8.39775L19.4317 8.39485C19.3899 8.3751 19.3521 8.35593 19.319 8.33677C19.283 8.31586 19.2493 8.29437 19.2185 8.27172C19.1883 8.24965 19.1564 8.22525 19.1245 8.1997C19.0896 8.17182 19.0519 8.13988 19.01 8.10387C18.9117 8.02005 18.8178 7.93107 18.7289 7.83728C18.6454 7.74867 18.5674 7.65498 18.4955 7.55676C18.4565 7.50448 18.4682 7.43014 18.5204 7.39123Z"
      fill="black" />
    <path
      d="M10.4333 6.52643L10.3241 6.36613C10.269 6.3911 10.1865 6.44163 10.0767 6.51714C9.96636 6.59206 9.8409 6.70299 9.69977 6.84993L9.38672 6.52875C9.5447 6.32954 9.71719 6.16575 9.90421 6.0374C10.0657 5.92763 10.1888 5.85793 10.2748 5.82831C10.3607 5.79811 10.4304 5.78591 10.4838 5.78998C10.6035 5.80217 10.7075 5.87361 10.7963 6.00371C10.9084 6.16808 10.9212 6.33302 10.8341 6.49855L10.8428 6.51075C11.0513 6.46661 11.2162 6.53398 11.3376 6.71112C11.3974 6.79824 11.4346 6.88188 11.4497 6.96203C11.4642 7.04218 11.4631 7.11361 11.4451 7.17518C11.4271 7.23674 11.3911 7.30063 11.337 7.36626C11.2557 7.46267 11.1245 7.57303 10.9427 7.69732C10.7586 7.82281 10.5606 7.9265 10.3526 8.0063L10.1441 7.5527C10.3259 7.48358 10.4711 7.41214 10.5797 7.3378C10.6877 7.26346 10.7777 7.19551 10.848 7.13278L10.74 6.9748L10.2875 7.2228L10.043 6.86503L10.4333 6.52643ZM11.8348 6.83774C11.7506 6.77733 11.6785 6.69776 11.617 6.59961C11.556 6.50145 11.495 6.37194 11.4335 6.21105C11.3719 6.05017 11.3306 5.91311 11.3109 5.79927C11.2906 5.68543 11.2917 5.57799 11.3138 5.47693C11.3353 5.37587 11.3893 5.28759 11.4747 5.21208C11.5595 5.13658 11.6785 5.06979 11.8307 5.01171C11.9835 4.95305 12.1159 4.92401 12.2286 4.92343C12.3418 4.92284 12.4406 4.95247 12.5254 5.01287C12.6101 5.07327 12.6827 5.15226 12.7426 5.251C12.803 5.34915 12.864 5.47925 12.9261 5.64129C12.9877 5.80275 13.0289 5.9404 13.0498 6.0525C13.0707 6.16517 13.0696 6.27204 13.0463 6.37368C13.0237 6.47532 12.9697 6.5636 12.8854 6.63852C12.8012 6.71344 12.6827 6.78024 12.5306 6.83832C12.3778 6.89698 12.2448 6.9266 12.131 6.92718C12.0177 6.92834 11.9184 6.89814 11.8348 6.83774ZM11.8865 5.67498L12.1856 6.45557L12.3029 6.41085C12.3865 6.37891 12.4417 6.34754 12.4684 6.31676C12.4951 6.28656 12.4963 6.23951 12.4719 6.17621L12.1728 5.39561L12.0421 5.44556C11.9602 5.47693 11.9074 5.50655 11.8842 5.53501C11.8609 5.56288 11.8615 5.60935 11.8865 5.67498ZM13.8211 6.3911L13.8194 4.525L14.6557 4.52442C14.992 4.52384 15.2232 4.59527 15.3486 4.73873C15.4746 4.88219 15.5374 5.12148 15.5374 5.4566C15.5379 5.7923 15.4752 6.03159 15.3498 6.17505C15.2243 6.3185 14.9937 6.39052 14.6575 6.39052L13.8211 6.3911ZM14.665 5.00183L14.417 5.00241L14.4182 5.91311H14.6656C14.7475 5.91311 14.8067 5.90323 14.8433 5.88465C14.8805 5.86548 14.8985 5.82192 14.8985 5.75455L14.8979 5.16039C14.8979 5.09244 14.8799 5.04888 14.8427 5.03029C14.8061 5.01171 14.7469 5.00183 14.665 5.00183ZM16.117 6.50784L15.5019 6.37135L16.3789 4.65452L17.2803 4.85431L17.3477 6.7814L16.7327 6.64491L16.7297 6.34115L16.2483 6.23429L16.117 6.50784ZM16.6891 5.31024L16.4562 5.79404L16.7245 5.85386L16.7216 5.31779L16.6891 5.31024ZM18.5529 5.38574L18.3856 6.04146L18.4036 6.05192L18.863 5.55301L19.4438 5.86664L18.3252 6.80695L18.0842 7.25359L17.5585 6.96958L17.7996 6.52294L17.9721 5.07211L18.5529 5.38574ZM18.59 7.48707L18.974 7.16705C19.0837 7.32096 19.1941 7.44525 19.305 7.5405C19.4159 7.63575 19.5094 7.70777 19.5855 7.75714L19.6825 7.64388L19.4938 7.45048C19.3236 7.27624 19.2347 7.12349 19.2278 6.99281C19.2202 6.86213 19.2765 6.72622 19.3974 6.58567C19.5629 6.39168 19.7191 6.29469 19.8649 6.29411C20.0113 6.29353 20.1849 6.37891 20.3859 6.5514C20.5868 6.72332 20.7524 6.89756 20.8819 7.07412L20.5142 7.38833C20.3928 7.24546 20.29 7.13743 20.2052 7.06541C20.1204 6.99281 20.0455 6.93473 19.9799 6.89175L19.8852 7.00326L20.0345 7.15892C20.2163 7.34826 20.3127 7.51262 20.3243 7.65201C20.3353 7.79199 20.2842 7.92789 20.1704 8.0609C20.0891 8.15673 20.0072 8.22584 19.9247 8.26998C19.8428 8.31354 19.7696 8.33736 19.7052 8.34084C19.6401 8.34433 19.5675 8.32748 19.4868 8.28973C19.4066 8.25256 19.3399 8.21481 19.2876 8.17647C19.2353 8.13814 19.1679 8.08355 19.0866 8.01385C18.8897 7.84542 18.7248 7.67002 18.59 7.48707Z"
      fill="white" />
  </g>
  <defs>
    <linearGradient id="paint0_linear_101_1452" x1="2.084" y1="13.2225" x2="27.5665" y2="13.2201"
      gradientUnits="userSpaceOnUse">
      <stop stop-color="#FECA47" />
      <stop offset="0.165" stop-color="#FED04F" />
      <stop offset="0.259" stop-color="#FED757" />
      <stop offset="0.69" stop-color="#E4B231" />
      <stop offset="1" stop-color="#E0AD2E" />
    </linearGradient>
    <linearGradient id="paint1_linear_101_1452" x1="6.07794" y1="12.3361" x2="23.3079" y2="12.3338"
      gradientUnits="userSpaceOnUse">
      <stop stop-color="#454545" />
      <stop offset="0.82" stop-color="#353535" />
      <stop offset="1" stop-color="#252525" />
    </linearGradient>
    <linearGradient id="paint2_linear_101_1452" x1="14.8204" y1="7.71243" x2="14.8227" y2="18.0326"
      gradientUnits="userSpaceOnUse">
      <stop stop-color="#FCDB6F" />
      <stop offset="1" stop-color="#E8BA40" />
    </linearGradient>
    <linearGradient id="paint3_linear_101_1452" x1="0.414062" y1="12.5824" x2="44.3706" y2="12.5801"
      gradientUnits="userSpaceOnUse">
      <stop stop-color="white" />
      <stop offset="0.631" stop-color="#F3F3F3" />
      <stop offset="1" stop-color="#E6E6E6" />
    </linearGradient>
    <clipPath id="clip0_101_1452">
      <rect width="29.7369" height="26" fill="white" />
    </clipPath>
  </defs>
</svg>