<svg width="90" height="36" viewBox="0 0 90 36" fill="none" xmlns="http://www.w3.org/2000/svg"><rect width="90" height="36" rx="4" fill="white"/><path d="M54.5897 18V10.0718H52.1632L50.0945 15.4281L47.914 10.0718H45.6104V18H47.2878V12.8114L49.3565 18H50.7878L52.8565 12.7444V18H54.5897ZM59.3873 18.1789C61.1317 18.1789 62.5295 17.1278 62.5295 15.1374V10.0718H60.7627V14.992C60.7627 15.9537 60.2259 16.4345 59.3873 16.4345C58.5486 16.4345 58.0119 15.9537 58.0119 14.992V10.0718H56.2451V15.1374C56.2451 17.1278 57.6428 18.1789 59.3873 18.1789ZM69.3741 18V16.3115H65.9524V10.0718H64.1856V18H69.3741ZM75.7379 11.7603V10.0718H69.0844V11.7603H71.5222V18H73.289V11.7603H75.7379ZM78.5984 18V10.0718H76.8093V18H78.5984Z" fill="#EF1893"/><path d="M46.2776 26.18V22.5346H47.2244C48.1413 22.5346 48.8943 23.131 48.8943 24.3685C48.8943 25.591 48.1339 26.18 47.2169 26.18H46.2776ZM47.2468 27C48.6781 27 49.8261 26.0607 49.8261 24.3685C49.8261 22.6688 48.693 21.7145 47.2542 21.7145H45.383V27H47.2468ZM51.3069 24.7859C51.3367 24.3983 51.6498 23.9808 52.194 23.9808C52.7904 23.9808 53.0737 24.361 53.0886 24.7859H51.3069ZM53.1855 25.7327C53.0662 26.0905 52.7979 26.3663 52.276 26.3663C51.7393 26.3663 51.3069 25.9712 51.2845 25.4196H53.9384C53.9459 25.4047 53.9608 25.2854 53.9608 25.1438C53.9608 23.9957 53.3048 23.2577 52.1866 23.2577C51.2696 23.2577 50.4198 24.0181 50.4198 25.1661C50.4198 26.3962 51.292 27.1118 52.276 27.1118C53.1482 27.1118 53.7222 26.5974 53.9161 25.9638L53.1855 25.7327ZM57.9945 23.3695H57.085L56.1457 25.9638L55.184 23.3695H54.2298L55.7059 27H56.5706L57.9945 23.3695ZM59.4884 27V23.3695H58.6311V27H59.4884ZM58.4969 22.0947C58.4969 22.4078 58.7503 22.6538 59.056 22.6538C59.3691 22.6538 59.6226 22.4078 59.6226 22.0947C59.6226 21.7816 59.3691 21.5282 59.056 21.5282C58.7503 21.5282 58.4969 21.7816 58.4969 22.0947ZM62.1844 24.0553C62.7361 24.0553 62.9821 24.4132 63.0641 24.7337L63.8394 24.4505C63.6903 23.869 63.1535 23.2577 62.1769 23.2577C61.1333 23.2577 60.3207 24.0628 60.3207 25.181C60.3207 26.2843 61.1333 27.1118 62.1993 27.1118C63.1535 27.1118 63.6977 26.4931 63.8692 25.9265L63.1088 25.6507C63.0268 25.9265 62.7659 26.3216 62.1993 26.3216C61.6551 26.3216 61.1855 25.9116 61.1855 25.181C61.1855 24.4505 61.6551 24.0553 62.1844 24.0553ZM65.2046 24.7859C65.2344 24.3983 65.5475 23.9808 66.0917 23.9808C66.6881 23.9808 66.9714 24.361 66.9863 24.7859H65.2046ZM67.0832 25.7327C66.9639 26.0905 66.6955 26.3663 66.1737 26.3663C65.637 26.3663 65.2046 25.9712 65.1822 25.4196H67.8361C67.8436 25.4047 67.8585 25.2854 67.8585 25.1438C67.8585 23.9957 67.2025 23.2577 66.0843 23.2577C65.1673 23.2577 64.3175 24.0181 64.3175 25.1661C64.3175 26.3962 65.1897 27.1118 66.1737 27.1118C67.0459 27.1118 67.6199 26.5974 67.8138 25.9638L67.0832 25.7327ZM68.3643 26.016C68.409 26.426 68.8116 27.1118 69.8627 27.1118C70.7871 27.1118 71.2344 26.5005 71.2344 25.9489C71.2344 25.4121 70.8766 24.9947 70.1907 24.8456L69.6391 24.7337C69.4154 24.689 69.2738 24.5474 69.2738 24.3535C69.2738 24.1299 69.49 23.9361 69.7956 23.9361C70.2802 23.9361 70.4368 24.2715 70.4666 24.4803L71.1971 24.2715C71.1375 23.9137 70.8095 23.2577 69.7956 23.2577C69.0427 23.2577 68.4612 23.7944 68.4612 24.4281C68.4612 24.9276 68.7967 25.345 69.4378 25.4867L69.9746 25.6059C70.2653 25.6656 70.3995 25.8147 70.3995 26.0085C70.3995 26.2322 70.2131 26.426 69.8553 26.426C69.3931 26.426 69.1471 26.1352 69.1173 25.8072L68.3643 26.016Z" fill="#37363E"/><path d="M18.4949 28.8037C18.7312 27.8615 18.9587 26.9425 19.195 26.0061C19.1163 26.0061 19.0608 26.0061 19.0025 26.0061C16.5024 26.0061 13.9995 26.0061 11.4994 26.0061C10.5922 26.0061 10 25.4168 10 24.5154C10 19.5941 10 14.6757 10 9.7544C10 8.88799 10.6009 8.28705 11.4644 8.28705C18.8712 8.28705 26.278 8.28705 33.6848 8.28705C34.592 8.28705 35.1784 8.87341 35.1784 9.78066C35.1784 11.6856 35.1784 13.5876 35.1784 15.4925C35.1784 15.5713 35.1784 15.6471 35.1784 15.7463C35.2338 15.7463 35.2863 15.7463 35.3359 15.7463C35.7385 15.7463 36.141 15.7434 36.5465 15.7463C37.3663 15.7492 37.976 16.3531 37.976 17.1728C37.9789 20.8835 37.9789 24.5942 37.976 28.3049C37.976 29.1246 37.3663 29.7314 36.5465 29.7314C30.0441 29.7314 23.5387 29.7314 17.0363 29.7314C16.7387 29.7314 16.5287 29.5359 16.5287 29.2676C16.5287 28.9963 16.7358 28.8008 17.0334 28.8008C17.471 28.7979 17.9085 28.8008 18.3461 28.8008C18.3928 28.8037 18.4395 28.8037 18.4949 28.8037ZM22.1239 25.0726C22.1239 24.9997 22.1239 24.9413 22.1239 24.883C22.1239 23.7745 22.1239 22.6688 22.1239 21.5603C22.1239 19.177 22.1239 16.7907 22.1239 14.4073C22.1239 14.0369 22.226 13.7072 22.471 13.4301C22.7657 13.0975 23.1391 12.9487 23.5825 12.9487C26.7389 12.9517 29.8953 12.9487 33.0546 12.9517C33.4514 12.9517 33.8452 12.9692 34.2536 12.9808C34.2419 13.01 34.2449 13.0071 34.2449 13.0012C34.2449 11.8898 34.2507 10.7783 34.2478 9.66397C34.2478 9.41892 34.0436 9.2293 33.7956 9.22055C33.7168 9.21764 33.641 9.22055 33.5622 9.22055C26.205 9.22055 18.845 9.22055 11.4878 9.22055C11.1085 9.22055 10.9364 9.39558 10.9364 9.7719C10.9364 14.6932 10.9364 19.6116 10.9364 24.5329C10.9364 24.8976 11.1173 25.0755 11.4849 25.0755C14.5654 25.0755 17.6431 25.0755 20.7236 25.0755C21.1787 25.0726 21.6396 25.0726 22.1239 25.0726ZM30.575 28.8037C30.5546 28.6083 30.5196 28.4303 30.5196 28.2553C30.5167 24.5738 30.5167 20.8923 30.5167 17.2108C30.5167 16.3473 31.1176 15.7492 31.984 15.7492C32.6841 15.7492 33.3814 15.7492 34.0815 15.7492C34.134 15.7492 34.1836 15.7492 34.2449 15.7492C34.2449 15.2942 34.2449 14.8595 34.2449 14.4219C34.2449 14.066 34.064 13.8852 33.7081 13.8852C30.3329 13.8852 26.9577 13.8852 23.5825 13.8852C23.5241 13.8852 23.4658 13.8852 23.4104 13.8997C23.1741 13.9581 23.0545 14.139 23.0545 14.4307C23.0545 19.0398 23.0545 23.649 23.0545 28.2582C23.0545 28.6258 23.2324 28.8066 23.5971 28.8066C25.8754 28.8066 28.1537 28.8066 30.4292 28.8066C30.4787 28.8037 30.5283 28.8037 30.575 28.8037ZM31.4502 22.7418C31.4502 24.5767 31.4502 26.4145 31.4502 28.2495C31.4502 28.6258 31.6252 28.8037 32.0015 28.8037C33.501 28.8037 35.0033 28.8037 36.5028 28.8037C36.8674 28.8037 37.0454 28.6258 37.0454 28.2553C37.0454 24.5825 37.0454 20.9127 37.0454 17.2399C37.0454 16.8519 36.8732 16.6798 36.4882 16.6798C34.9917 16.6798 33.4951 16.6798 32.0015 16.6798C31.6252 16.6798 31.4531 16.8549 31.4531 17.2341C31.4502 19.0719 31.4502 20.9069 31.4502 22.7418ZM19.4605 28.7979C20.3823 28.7979 21.2866 28.7979 22.1793 28.7979C22.0626 27.8702 22.1647 26.9425 22.1151 26.0178C21.4588 26.0178 20.8053 26.0178 20.1548 26.0178C19.9214 26.9484 19.6909 27.8673 19.4605 28.7979Z" fill="#EF1893"/><path d="M25.6178 27.8731C25.3173 27.8731 25.0169 27.876 24.7135 27.8731C24.4188 27.8702 24.2117 27.6718 24.2146 27.4005C24.2175 27.1351 24.4247 26.9425 24.7106 26.9425C25.3115 26.9425 25.9154 26.9396 26.5163 26.9425C26.7993 26.9425 27.0093 27.1438 27.0093 27.4064C27.0093 27.6718 26.8022 27.8702 26.5192 27.8731C26.2187 27.8731 25.9183 27.8731 25.6178 27.8731Z" fill="#EF1893"/><path d="M31.6797 27.8702C31.5251 27.8702 31.3676 27.8732 31.213 27.8702C30.9417 27.8644 30.7404 27.6573 30.7433 27.3976C30.7462 27.1439 30.9475 26.9426 31.213 26.9396C31.5251 26.9367 31.8344 26.9338 32.1465 26.9396C32.409 26.9426 32.6103 27.1497 32.6103 27.4035C32.6103 27.6573 32.412 27.8615 32.1494 27.8702C31.989 27.8761 31.8344 27.8702 31.6797 27.8702Z" fill="#EF1893"/></svg>