<svg width="63" height="62" viewBox="0 0 63 62" fill="none" xmlns="http://www.w3.org/2000/svg">
<g clip-path="url(#clip0_94_1241)">
<path d="M41.49 31.4047C41.4414 31.2266 41.409 31.0485 41.3605 30.8867C40.5996 28.6041 39.3855 26.613 37.7344 24.8809C37.6048 24.7514 37.5077 24.5895 37.3297 24.541C37.2487 24.6543 37.184 24.7838 37.0868 24.8809C35.1443 26.8235 33.2017 28.766 31.2592 30.7086C31.1782 30.7895 31.0649 30.8543 30.9678 30.919C30.984 30.9514 30.984 31 31.0001 31.0323C32.1333 32.0522 32.7646 33.3796 33.0236 34.8365C33.4445 37.2485 32.7808 39.3692 31.1297 41.1822C31.0649 41.247 30.9678 41.3117 30.8868 41.3603C27.8921 44.3551 24.8163 47.2851 21.9025 50.3608C19.0048 53.4203 14.4722 53.7927 11.2508 50.8626C11.1051 50.8626 11.008 50.9274 10.927 51.0083C11.0242 50.9274 11.1213 50.8788 11.2508 50.8626C8.22365 47.6088 8.32078 43.3514 11.4936 40.1947C14.537 37.1676 17.5803 34.1404 20.6075 31.1133C19.9438 28.9603 19.6686 26.7749 19.8304 24.5248C19.9276 23.2135 20.2513 21.9671 20.5751 20.7044C18.3735 21.3843 16.431 22.5175 14.796 24.1201C11.3803 27.471 7.99702 30.8543 4.62991 34.2538C2.33122 36.5686 0.906677 39.353 0.259157 42.5258C0.162029 42.9629 0.210593 43.4323 -0.0322266 43.8532C-0.0322266 45.0188 -0.0322266 46.2005 -0.0322266 47.366C0.226781 47.9164 0.194405 48.5316 0.323909 49.0981C0.971429 52.0282 2.29884 54.6021 4.35472 56.7874C4.45185 56.8846 4.56516 56.9655 4.66229 57.0626C4.84036 57.0626 4.95367 56.9817 5.06699 56.8684C4.96986 56.9817 4.84036 57.0626 4.66229 57.0626C5.61738 58.2444 6.84767 59.0861 8.12652 59.8308C10.0367 60.9639 12.1088 61.6438 14.3103 61.8867C14.3913 61.9028 14.4722 61.919 14.4884 62C15.6216 62 16.7547 62 17.8879 62C17.9203 61.9028 17.985 61.8867 18.0659 61.8867C21.9349 61.4658 25.221 59.847 27.973 57.1112C30.7573 54.343 33.5093 51.5263 36.3422 48.7906C38.5599 46.6538 40.373 44.2579 41.3766 41.3117C41.5709 40.2271 41.9109 39.1749 42.0242 38.0741C42.3156 35.8078 42.1375 33.59 41.49 31.4047Z" fill="#511BC9"/>
<path d="M49.1472 47.2042C49.6491 47.1394 50.07 47.4632 50.4423 47.8355C51.2355 48.6125 52.0287 49.3895 52.7895 50.1828C53.5504 50.976 53.5666 52.0929 52.8381 52.8214C52.1096 53.5499 50.9927 53.5499 50.1995 52.789C49.3901 52.012 48.5807 51.2188 47.8036 50.3932C46.8162 49.3572 47.0428 47.8355 48.2245 47.3175C48.5159 47.2042 48.7911 47.2204 49.1472 47.2042Z" fill="#41E296"/>
<path d="M14.7801 12.918C14.8611 13.7436 14.4887 14.294 13.8574 14.5854C13.2423 14.8768 12.5624 14.9091 11.9796 14.4397C10.895 13.5979 9.95611 12.5943 9.04958 11.5744C8.38587 10.8459 8.53156 9.77754 9.21146 9.13002C9.87517 8.49869 10.9112 8.40156 11.6235 9.04908C12.5786 9.90704 13.4689 10.8459 14.3592 11.7849C14.6506 12.0924 14.8934 12.4971 14.7801 12.918Z" fill="#41E296"/>
<path d="M37.6376 53.7603C38.4308 53.7603 39.0784 54.2136 39.3374 55.0554C39.7097 56.2856 40.0496 57.5321 40.3248 58.7786C40.5353 59.7175 39.9201 60.5755 38.9165 60.8507C38.1071 61.0773 37.1196 60.5755 36.8444 59.7013C36.4397 58.3901 36.0836 57.0789 35.776 55.7514C35.5494 54.7802 36.5692 53.7441 37.6376 53.7603Z" fill="#41E296"/>
<path d="M53.7767 37.5075C53.7929 36.4068 54.8937 35.5488 55.9783 35.8078C57.1762 36.1154 58.3903 36.4229 59.5882 36.7791C60.5757 37.0705 61.1099 38.0417 60.8509 38.9159C60.5271 40.0167 59.6853 40.5185 58.5846 40.2271C57.4352 39.9357 56.2859 39.6282 55.1527 39.3206C54.2786 39.1101 53.7605 38.3979 53.7767 37.5075Z" fill="#41E296"/>
<path d="M24.4605 8.22345C23.6187 8.22345 22.955 7.78638 22.696 6.92841C22.3237 5.69813 21.9837 4.45165 21.7085 3.20518C21.4981 2.2339 22.1456 1.37593 23.1978 1.11693C23.9749 0.938858 24.9461 1.47306 25.189 2.31484C25.5775 3.60988 25.9336 4.90492 26.2412 6.21614C26.4516 7.15505 25.4803 8.22345 24.4605 8.22345Z" fill="#41E296"/>
<path d="M3.1725 21.6595C4.01428 21.8861 5.09888 22.1613 6.18347 22.4527C6.58817 22.566 7.00906 22.647 7.38138 22.8736C8.10984 23.3107 8.4336 24.2819 8.14222 25.0266C7.86702 25.7227 7.00906 26.4349 6.07015 26.1759C4.83987 25.836 3.5772 25.5284 2.34692 25.1723C1.53752 24.9295 0.970938 23.9744 1.11663 23.2459C1.2947 22.307 2.02316 21.6595 3.1725 21.6595Z" fill="#41E296"/>
<path d="M60.7865 10.0851C60.0256 8.04542 58.8277 6.26474 57.2089 4.77544C57.1765 4.72688 57.1442 4.67832 57.0956 4.62975C50.9118 -1.45693 40.7295 -1.57025 34.481 4.45168C31.3405 7.47884 28.2972 10.5869 25.2053 13.6788C24.6225 14.2616 24.0397 14.8606 23.5055 15.4919C22.1943 17.0298 21.3201 18.8104 20.5917 20.6882C20.2841 21.9509 19.9442 23.2136 19.847 24.5086C19.6852 26.7587 19.9604 28.9441 20.6241 31.0971C21.4982 33.4767 22.7771 35.5974 24.5577 37.4104C24.6063 37.459 24.6549 37.4914 24.6872 37.5237C24.6872 37.3457 24.7844 37.2324 24.8977 37.1352C24.9463 37.0867 24.9948 37.0543 25.0272 37.0219C24.9786 37.0543 24.9301 37.1029 24.8977 37.1352C24.7844 37.2324 24.7034 37.3457 24.6872 37.5237C26.4355 39.3044 28.5238 40.5509 30.8872 41.3441C30.9682 41.2794 31.0653 41.2308 31.1301 41.166C32.7812 39.353 33.4449 37.2324 33.0241 34.8204C32.7651 33.3472 32.1337 32.036 31.0006 31.0162C30.9844 30.9838 30.9682 30.9352 30.9682 30.9029C28.1677 28.329 28.2324 23.1974 31.0977 20.672C32.2794 19.4903 33.4449 18.2924 34.6267 17.1107C36.4559 15.2814 38.3499 13.5331 40.082 11.623C42.8825 8.56343 47.6904 8.11017 50.847 11.2506C51.9154 12.4647 52.6439 13.8407 52.822 15.4919C53.0648 17.7096 52.4982 19.6846 50.9604 21.2548C47.7875 24.4924 44.5499 27.6653 41.3447 30.8705C41.3932 31.0485 41.4256 31.2266 41.4742 31.3885C42.1217 33.5739 42.2836 35.8078 42.0408 38.0741C41.9275 39.1749 41.5875 40.2271 41.3932 41.3117C43.5624 40.6157 45.505 39.5149 47.1238 37.9446C50.6042 34.5613 54.1332 31.2104 57.4517 27.6491C62.211 22.5499 63.2308 16.5927 60.7865 10.0851Z" fill="#EF1893"/>
<path d="M31.1135 20.6721C33.5093 21.4491 35.5814 22.7117 37.3297 24.5248C37.2487 24.6381 37.184 24.7676 37.0869 24.8647C35.1443 26.8073 33.2018 28.7499 31.2592 30.6924C31.1783 30.7734 31.0649 30.8381 30.9678 30.9029C28.1673 28.329 28.232 23.1974 31.1135 20.6721Z" fill="#511BC9"/>
</g>
<defs>
<clipPath id="clip0_94_1241">
<rect width="62.0648" height="62" fill="white"/>
</clipPath>
</defs>
</svg>
