<svg width="24" height="24" viewBox="0 0 24 24" fill="none" xmlns="http://www.w3.org/2000/svg">
<g clip-path="url(#clip0_101_2281)">
<path d="M23.561 21.4454L18.9159 16.7983C22.3916 12.1535 21.4439 5.57052 16.7991 2.0948C12.1543 -1.38092 5.57131 -0.433205 2.09559 4.21157C-1.38013 8.85634 -0.432411 15.4393 4.21236 18.9151C7.94343 21.7071 13.068 21.7071 16.7991 18.9151L21.4462 23.5622C22.0302 24.1462 22.977 24.1462 23.561 23.5622C24.1449 22.9782 24.1449 22.0314 23.561 21.4474L23.561 21.4454ZM10.5445 18.0181C6.4164 18.0181 3.06998 14.6717 3.06998 10.5437C3.06998 6.4156 6.4164 3.06919 10.5445 3.06919C14.6725 3.06919 18.0189 6.4156 18.0189 10.5437C18.0145 14.6698 14.6707 18.0137 10.5445 18.0181Z" fill="#511BC9"/>
</g>
<defs>
<clipPath id="clip0_101_2281">
<rect width="24" height="24" fill="white"/>
</clipPath>
</defs>
</svg>
