<svg width="27" height="24" viewBox="0 0 27 24" fill="none" xmlns="http://www.w3.org/2000/svg">
  <path
    d="M14.3109 1.32756C13.5657 1.45081 12.8381 1.66381 12.144 1.96192C11.5643 2.20986 11.0089 2.51127 10.4851 2.86223C9.97288 3.20414 9.49602 3.59629 9.06162 4.03285C8.78603 4.30672 8.52827 4.59798 8.28993 4.90482H11.0977C12.0336 3.59762 13.1113 2.39791 14.3109 1.32756ZM1.3534 10.6642H16.5104C16.8233 10.6659 17.1228 10.7909 17.344 11.0121C17.5652 11.2334 17.6902 11.5329 17.692 11.8457V21.8407C17.6902 22.1535 17.5652 22.453 17.344 22.6742C17.1228 22.8955 16.8233 23.0205 16.5104 23.0222H8.33788C8.4338 22.7606 8.51882 22.4903 8.59294 22.2091H16.5104C16.6071 22.2077 16.6994 22.1686 16.7677 22.1001C16.802 22.0662 16.8294 22.0258 16.8481 21.9813C16.8668 21.9368 16.8765 21.889 16.8767 21.8407V16.2383H0.987168V17.4808C0.718555 17.5494 0.446382 17.6033 0.171875 17.6421V11.8457C0.172451 11.5325 0.297118 11.2323 0.518571 11.0109C0.740024 10.7894 1.04021 10.6648 1.3534 10.6642ZM11.7538 17.5767C12.0009 17.5763 12.2446 17.6339 12.4653 17.7448C12.6861 17.8558 12.8777 18.017 13.0247 18.2155C13.2236 17.9482 13.5016 17.7504 13.8193 17.6502C14.137 17.5499 14.4782 17.5524 14.7945 17.6571C15.1107 17.7619 15.3859 17.9636 15.5809 18.2337C15.776 18.5037 15.881 18.8284 15.881 19.1615C15.881 19.4947 15.776 19.8193 15.5809 20.0894C15.3859 20.3595 15.1107 20.5612 14.7945 20.666C14.4782 20.7707 14.137 20.7732 13.8193 20.6729C13.5016 20.5727 13.2236 20.3749 13.0247 20.1076C12.8633 20.3246 12.649 20.4966 12.4023 20.6074C12.1556 20.7181 11.8847 20.7639 11.6153 20.7403C11.3459 20.7168 11.087 20.6247 10.8633 20.4728C10.6395 20.321 10.4584 20.1144 10.337 19.8727C10.2157 19.6311 10.1582 19.3624 10.17 19.0922C10.1818 18.8221 10.2626 18.5594 10.4046 18.3293C10.5466 18.0992 10.7451 17.9092 10.9813 17.7775C11.2175 17.6458 11.4834 17.5766 11.7538 17.5767ZM0.987168 13.1035H16.8767V11.8457C16.8761 11.7488 16.8373 11.6559 16.7688 11.5874C16.7002 11.5188 16.6074 11.4801 16.5104 11.4795H1.3534C1.30522 11.4792 1.25747 11.4885 1.2129 11.5068C1.16834 11.5251 1.12785 11.552 1.09379 11.5861C1.05972 11.6202 1.03276 11.6607 1.01446 11.7052C0.996154 11.7498 0.986879 11.7975 0.987168 11.8457V13.1035ZM24.3124 15.6584H24.3364C24.5206 15.3303 24.6872 14.9927 24.8356 14.6469L24.8487 14.6164C25.0922 14.0399 25.277 13.4403 25.4002 12.8267C25.4882 12.3821 25.545 11.932 25.5702 11.4795H22.8758C22.7888 12.9489 22.3651 14.3787 21.6376 15.6584H24.3124ZM23.5472 16.8595H20.8899C20.5752 17.313 20.2369 17.7496 19.8762 18.1675V15.6584H20.249C21.0728 14.4096 21.5642 12.9713 21.6769 11.4795H19.8762V10.2762H21.6507C21.5054 8.90426 20.9858 7.51201 20.0921 6.09942H16.5126V8.33603H15.3115V6.10378H11.732C11.2778 6.80471 10.9048 7.55507 10.6203 8.34038H9.35591C9.60228 7.56203 9.93114 6.81224 10.3369 6.10378H7.48771C7.30071 6.43027 7.13116 6.76645 6.97979 7.11091L6.96671 7.13924C6.80279 7.52852 6.66515 7.92834 6.5547 8.33603H5.32304C5.45926 7.76675 5.64227 7.2097 5.87021 6.67056L5.88329 6.63568C6.16112 5.98829 6.49826 5.368 6.89041 4.78274C7.66621 3.62749 8.65902 2.63394 9.8137 1.85728C10.3987 1.46472 11.019 1.12755 11.6666 0.850153C13.0108 0.279841 14.4574 -0.00948027 15.9175 -1.93872e-05C16.6495 0.00152704 17.3796 0.0745376 18.0974 0.217973C18.7917 0.358084 19.4702 0.567686 20.1226 0.843613L20.1553 0.856692C20.8029 1.13409 21.4232 1.47126 22.0082 1.86382C23.1645 2.64004 24.1588 3.63362 24.9359 4.78928C25.3281 5.37409 25.6646 5.99446 25.9408 6.64222C26.2244 7.30514 26.4392 7.99544 26.5817 8.70225C26.8628 10.1419 26.8628 11.6224 26.5817 13.0621C26.4381 13.7568 26.2248 14.4353 25.9452 15.0873L25.9299 15.12C25.6542 15.7679 25.3177 16.3884 24.925 16.9729C24.1487 18.1299 23.1543 19.1243 21.9973 19.9005C21.4123 20.2924 20.7919 20.6289 20.1444 20.9055C20.0528 20.9447 19.9613 20.984 19.8675 21.0188V19.7109C20.3766 19.4805 20.8658 19.2085 21.3303 18.8978C21.843 18.5558 22.3199 18.1628 22.7537 17.725C23.0293 17.4511 23.2871 17.1598 23.5254 16.853L23.5472 16.8595ZM22.8649 10.2762H25.5811C25.5519 9.82635 25.4914 9.37912 25.4002 8.93769C25.2757 8.31324 25.0872 7.70328 24.8378 7.11745C24.6882 6.77186 24.5208 6.43425 24.3364 6.10596H21.4872C22.2379 7.3837 22.7041 8.80835 22.854 10.2827L22.8649 10.2762ZM12.5866 4.8961H15.3115V2.04039C14.3207 2.91 13.4088 3.86563 12.5866 4.8961ZM16.5104 4.8961H19.2353C18.4131 3.86563 17.5013 2.91 16.5104 2.04039V4.8961ZM20.7242 4.8961H23.5472C23.3089 4.58926 23.0511 4.298 22.7755 4.02413C22.3411 3.58757 21.8643 3.19542 21.3521 2.85351C20.8243 2.50396 20.2644 2.20542 19.6801 1.96192L19.6517 1.94884C19.0748 1.70428 18.4744 1.51947 17.8598 1.39731C17.7465 1.37552 17.6418 1.35372 17.5154 1.33628C18.7133 2.40122 19.7902 3.59505 20.7264 4.8961H20.7242Z"
    fill="#511BC9" />
</svg>