<svg id="Layer_1" data-name="Layer 1" xmlns="http://www.w3.org/2000/svg" xmlns:xlink="http://www.w3.org/1999/xlink" viewBox="0 0 1500 1000"><defs><style>.cls-1{fill:none;}.cls-2{clip-path:url(#clip-path);}.cls-3{fill:#002395;}.cls-4{fill:#de3831;}.cls-5{fill:#fff;}.cls-6{clip-path:url(#clip-path-2);}.cls-7{fill:#ffb612;}.cls-8{fill:#007a4d;}</style><clipPath id="clip-path"><rect id="_1" data-name="1" class="cls-1" width="1500" height="1000"/></clipPath><clipPath id="clip-path-2"><polyline id="_2" data-name="2" class="cls-1" points="0 0 750 500 0 1000"/></clipPath></defs><title>South Africa</title><g id="Group_1" data-name="Group 1"><g class="cls-2"><g id="Group_2" data-name="Group 2"><path id="_6" data-name="6" class="cls-3" d="M0,0V1000H1500V0Z"/><path id="_5" data-name="5" class="cls-4" d="M0,0V500H1500V0Z"/><path id="_4" data-name="4" d="M0,0,750,500,0,1000M730,500h770"/><polygon class="cls-5" points="92.45 1138.68 -92.45 861.32 449.54 500 -92.45 138.68 92.45 -138.68 800.46 333.33 1500 333.33 1500 666.67 800.46 666.67 92.45 1138.68"/><g id="Group_3" data-name="Group 3"><g class="cls-6"><path id="_3" data-name="3" d="M0,0,750,500,0,1000"/><polygon class="cls-7" points="83.21 1124.81 -83.21 875.19 479.58 500 -83.21 124.81 83.21 -124.81 1020.42 500 83.21 1124.81"/></g></g><polygon class="cls-8" points="55.47 1083.21 -55.47 916.79 569.72 500 -55.47 83.21 55.47 -83.21 780.28 400 1500 400 1500 600 780.28 600 55.47 1083.21"/></g></g></g></svg>