<svg width="106" height="39" viewBox="0 0 106 39" fill="none" xmlns="http://www.w3.org/2000/svg"><path d="M11.1071 24.6773L15.6334 23.5302L17.5245 29.3586L11.1071 24.6773ZM21.5237 17.1438H13.5562L11.1071 9.64136L8.65793 17.1438H0.69043L7.13883 21.7941L4.68968 29.2966L11.1381 24.6463L15.1063 21.7941L21.5237 17.1438Z" fill="#219653"/><path d="M34.286 12.3047V25H31.6789V12.3047H34.286ZM38.1922 12.3047V14.3537H27.8337V12.3047H38.1922ZM41.4271 17.6235V25H38.9159V15.5657H41.2788L41.4271 17.6235ZM44.2696 15.5047L44.226 17.8327C44.1039 17.8153 43.9557 17.8008 43.7813 17.7891C43.6127 17.7717 43.4587 17.763 43.3191 17.763C42.9646 17.763 42.6565 17.8095 42.3949 17.9025C42.1391 17.9897 41.9241 18.1205 41.7497 18.2949C41.5811 18.4693 41.4532 18.6814 41.366 18.9314C41.2846 19.1813 41.2381 19.4662 41.2265 19.7859L40.7208 19.6289C40.7208 19.0186 40.7818 18.4576 40.9039 17.9461C41.026 17.4287 41.2033 16.9783 41.4358 16.5946C41.6741 16.211 41.9648 15.9145 42.3077 15.7052C42.6507 15.496 43.043 15.3913 43.4848 15.3913C43.6243 15.3913 43.7667 15.403 43.9121 15.4262C44.0574 15.4437 44.1765 15.4698 44.2696 15.5047ZM51.0357 22.7417V15.5657H53.5469V25H51.184L51.0357 22.7417ZM51.3147 20.806L52.0559 20.7886C52.0559 21.4164 51.9832 22.0006 51.8379 22.5412C51.6926 23.0759 51.4746 23.541 51.184 23.9362C50.8933 24.3257 50.5271 24.6309 50.0853 24.8518C49.6435 25.0668 49.1233 25.1744 48.5246 25.1744C48.0654 25.1744 47.641 25.1104 47.2515 24.9826C46.8679 24.8489 46.5366 24.6425 46.2576 24.3635C45.9843 24.0787 45.7693 23.7154 45.6123 23.2736C45.4612 22.826 45.3856 22.2883 45.3856 21.6605V15.5657H47.8968V21.6779C47.8968 21.957 47.9287 22.1924 47.9927 22.3842C48.0624 22.576 48.1584 22.733 48.2804 22.8551C48.4025 22.9771 48.5449 23.0643 48.7077 23.1166C48.8762 23.1689 49.0623 23.1951 49.2657 23.1951C49.7831 23.1951 50.19 23.0905 50.4864 22.8812C50.7887 22.6719 51.0008 22.3871 51.1229 22.0267C51.2508 21.6605 51.3147 21.2536 51.3147 20.806ZM60.5659 22.3929C60.5659 22.2127 60.5136 22.05 60.409 21.9047C60.3043 21.7593 60.1096 21.6256 59.8248 21.5036C59.5458 21.3757 59.1418 21.2594 58.6128 21.1548C58.1361 21.0502 57.6914 20.9194 57.2787 20.7624C56.8718 20.5997 56.5173 20.4049 56.215 20.1782C55.9185 19.9515 55.686 19.6841 55.5174 19.3761C55.3489 19.0622 55.2646 18.7047 55.2646 18.3036C55.2646 17.9083 55.3489 17.5363 55.5174 17.1875C55.6918 16.8387 55.9389 16.5307 56.2586 16.2633C56.5841 15.9901 56.9794 15.7779 57.4444 15.6268C57.9152 15.4698 58.4442 15.3913 59.0313 15.3913C59.8509 15.3913 60.5543 15.5221 61.1414 15.7837C61.7343 16.0453 62.1877 16.4057 62.5016 16.8649C62.8213 17.3183 62.9812 17.8356 62.9812 18.4169H60.47C60.47 18.1728 60.4177 17.9548 60.313 17.763C60.2142 17.5654 60.0573 17.4113 59.8422 17.3009C59.6329 17.1846 59.3597 17.1265 59.0226 17.1265C58.7436 17.1265 58.5023 17.1759 58.2989 17.2747C58.0954 17.3677 57.9385 17.4956 57.8281 17.6584C57.7234 17.8153 57.6711 17.9897 57.6711 18.1815C57.6711 18.3268 57.7002 18.4576 57.7583 18.5739C57.8222 18.6843 57.924 18.7861 58.0635 18.8791C58.203 18.9721 58.3832 19.0593 58.6041 19.1406C58.8308 19.2162 59.1098 19.286 59.4411 19.3499C60.1212 19.4894 60.7287 19.6725 61.2635 19.8992C61.7982 20.1201 62.2226 20.4224 62.5365 20.806C62.8504 21.1839 63.0073 21.6809 63.0073 22.297C63.0073 22.7155 62.9143 23.0992 62.7283 23.448C62.5423 23.7967 62.2749 24.1019 61.9261 24.3635C61.5773 24.6193 61.1588 24.8198 60.6705 24.9651C60.1881 25.1046 59.6446 25.1744 59.04 25.1744C58.1623 25.1744 57.4182 25.0174 56.8079 24.7035C56.2034 24.3896 55.7441 23.9915 55.4302 23.509C55.1222 23.0207 54.9681 22.5208 54.9681 22.0093H57.3485C57.3601 22.3522 57.4473 22.6284 57.6101 22.8376C57.7786 23.0469 57.9908 23.198 58.2466 23.291C58.5082 23.384 58.7901 23.4305 59.0923 23.4305C59.4179 23.4305 59.6882 23.3869 59.9032 23.2997C60.1183 23.2067 60.2811 23.0847 60.3915 22.9335C60.5078 22.7766 60.5659 22.5964 60.5659 22.3929ZM69.259 15.5657V17.3445H63.7659V15.5657H69.259ZM65.1261 13.2377H67.6373V22.1575C67.6373 22.4307 67.6721 22.64 67.7419 22.7853C67.8175 22.9306 67.9279 23.0323 68.0732 23.0905C68.2185 23.1428 68.4016 23.1689 68.6225 23.1689C68.7795 23.1689 68.919 23.1631 69.0411 23.1515C69.1689 23.1341 69.2765 23.1166 69.3637 23.0992L69.3724 24.9477C69.1573 25.0174 68.9248 25.0727 68.6748 25.1134C68.4249 25.154 68.1488 25.1744 67.8465 25.1744C67.2943 25.1744 66.8118 25.0843 66.3991 24.9041C65.9922 24.7181 65.6783 24.4216 65.4574 24.0147C65.2365 23.6078 65.1261 23.073 65.1261 22.4104V13.2377ZM73.2002 17.3793V28.6272H70.689V15.5657H73.0171L73.2002 17.3793ZM79.1729 20.1782V20.3613C79.1729 21.0473 79.0915 21.6838 78.9287 22.2709C78.7718 22.858 78.5393 23.3695 78.2312 23.8055C77.9231 24.2356 77.5395 24.5728 77.0802 24.8169C76.6268 25.0552 76.1037 25.1744 75.5108 25.1744C74.9353 25.1744 74.4354 25.0581 74.0111 24.8256C73.5867 24.5931 73.2292 24.2676 72.9386 23.8491C72.6538 23.4247 72.4241 22.9335 72.2498 22.3755C72.0754 21.8175 71.9417 21.2187 71.8487 20.5793V20.0998C71.9417 19.4138 72.0754 18.7861 72.2498 18.2164C72.4241 17.6409 72.6538 17.1439 72.9386 16.7254C73.2292 16.3011 73.5838 15.9726 74.0023 15.7401C74.4267 15.5076 74.9237 15.3913 75.4933 15.3913C76.0921 15.3913 76.6181 15.5047 77.0715 15.7314C77.5307 15.9581 77.9144 16.2836 78.2225 16.708C78.5364 17.1323 78.7718 17.638 78.9287 18.2251C79.0915 18.8122 79.1729 19.4632 79.1729 20.1782ZM76.653 20.3613V20.1782C76.653 19.7771 76.6181 19.408 76.5484 19.0709C76.4844 18.7279 76.3798 18.4286 76.2345 18.1728C76.095 17.917 75.909 17.7194 75.6764 17.5799C75.4497 17.4346 75.1736 17.3619 74.8481 17.3619C74.5051 17.3619 74.2116 17.4171 73.9675 17.5276C73.7291 17.638 73.5344 17.7979 73.3833 18.0071C73.2321 18.2164 73.1188 18.4663 73.0432 18.757C72.9676 19.0476 72.9211 19.3761 72.9037 19.7423V20.9542C72.9328 21.3844 73.0141 21.771 73.1478 22.1139C73.2815 22.4511 73.4879 22.7185 73.7669 22.9161C74.0459 23.1137 74.4121 23.2125 74.8655 23.2125C75.1969 23.2125 75.4759 23.1399 75.7026 22.9946C75.9293 22.8434 76.1124 22.6371 76.2519 22.3755C76.3972 22.1139 76.499 21.8116 76.5571 21.4687C76.621 21.1257 76.653 20.7566 76.653 20.3613ZM83.3843 15.5657V25H80.8644V15.5657H83.3843ZM80.7075 13.1069C80.7075 12.7407 80.8354 12.4384 81.0911 12.2001C81.3469 11.9618 81.6898 11.8426 82.12 11.8426C82.5443 11.8426 82.8844 11.9618 83.1402 12.2001C83.4017 12.4384 83.5325 12.7407 83.5325 13.1069C83.5325 13.4731 83.4017 13.7754 83.1402 14.0137C82.8844 14.252 82.5443 14.3712 82.12 14.3712C81.6898 14.3712 81.3469 14.252 81.0911 14.0137C80.8354 13.7754 80.7075 13.4731 80.7075 13.1069ZM88.1102 11.6072V25H85.5903V11.6072H88.1102ZM89.7843 20.3788V20.1957C89.7843 19.5039 89.8831 18.8674 90.0807 18.2861C90.2783 17.699 90.5661 17.1904 90.9439 16.7603C91.3218 16.3301 91.7868 15.9959 92.339 15.7576C92.8912 15.5134 93.5248 15.3913 94.2398 15.3913C94.9548 15.3913 95.5913 15.5134 96.1493 15.7576C96.7074 15.9959 97.1753 16.3301 97.5531 16.7603C97.9368 17.1904 98.2274 17.699 98.4251 18.2861C98.6227 18.8674 98.7215 19.5039 98.7215 20.1957V20.3788C98.7215 21.0647 98.6227 21.7012 98.4251 22.2883C98.2274 22.8696 97.9368 23.3782 97.5531 23.8142C97.1753 24.2443 96.7103 24.5786 96.1581 24.8169C95.6058 25.0552 94.9722 25.1744 94.2573 25.1744C93.5423 25.1744 92.9058 25.0552 92.3477 24.8169C91.7955 24.5786 91.3276 24.2443 90.9439 23.8142C90.5661 23.3782 90.2783 22.8696 90.0807 22.2883C89.8831 21.7012 89.7843 21.0647 89.7843 20.3788ZM92.2954 20.1957V20.3788C92.2954 20.7741 92.3303 21.1432 92.4 21.4861C92.4698 21.8291 92.5802 22.1314 92.7314 22.3929C92.8883 22.6487 93.0918 22.8492 93.3417 22.9946C93.5917 23.1399 93.8969 23.2125 94.2573 23.2125C94.606 23.2125 94.9054 23.1399 95.1553 22.9946C95.4053 22.8492 95.6058 22.6487 95.757 22.3929C95.9081 22.1314 96.0185 21.8291 96.0883 21.4861C96.1639 21.1432 96.2017 20.7741 96.2017 20.3788V20.1957C96.2017 19.812 96.1639 19.4516 96.0883 19.1145C96.0185 18.7715 95.9052 18.4693 95.7483 18.2077C95.5971 17.9403 95.3966 17.731 95.1466 17.5799C94.8967 17.4287 94.5944 17.3532 94.2398 17.3532C93.8852 17.3532 93.583 17.4287 93.333 17.5799C93.0889 17.731 92.8883 17.9403 92.7314 18.2077C92.5802 18.4693 92.4698 18.7715 92.4 19.1145C92.3303 19.4516 92.2954 19.812 92.2954 20.1957ZM104.886 15.5657V17.3445H99.3929V15.5657H104.886ZM100.753 13.2377H103.264V22.1575C103.264 22.4307 103.299 22.64 103.369 22.7853C103.444 22.9306 103.555 23.0323 103.7 23.0905C103.846 23.1428 104.029 23.1689 104.25 23.1689C104.407 23.1689 104.546 23.1631 104.668 23.1515C104.796 23.1341 104.904 23.1166 104.991 23.0992L104.999 24.9477C104.784 25.0174 104.552 25.0727 104.302 25.1134C104.052 25.154 103.776 25.1744 103.474 25.1744C102.921 25.1744 102.439 25.0843 102.026 24.9041C101.619 24.7181 101.305 24.4216 101.084 24.0147C100.864 23.6078 100.753 23.073 100.753 22.4104V13.2377Z" fill="white"/></svg>