<svg width="81" height="48" viewBox="0 0 81 48" fill="none" xmlns="http://www.w3.org/2000/svg"><g clip-path="url(#clip0_55_1159)"><path fill-rule="evenodd" clip-rule="evenodd" d="M1.67432 44.0483H9.97339C9.36035 43.8867 8.89893 43.3079 8.89893 42.6347V1.46065C8.89893 0.659647 9.54492 0 10.3293 0H70.2949C71.0793 0 71.7253 0.659647 71.7253 1.46065V42.628C71.7253 43.3079 71.2705 43.88 70.6509 44.0415H79.3257C80.2485 44.0415 81 44.8089 81 45.7512C81 46.6936 80.2485 47.4609 79.3257 47.4609H1.67432C0.751465 47.4609 0 46.6936 0 45.7512C0 44.8156 0.751465 44.0483 1.67432 44.0483ZM11.3445 2.28857H69.4775V42.2174H11.3445V2.28857ZM38.1467 44.6877H42.8533C43.2949 44.6877 43.6575 45.0579 43.6575 45.5089C43.6575 45.9599 43.2949 46.3301 42.8533 46.3301H38.1467C37.7051 46.3301 37.3425 45.9599 37.3425 45.5089C37.3425 45.0512 37.7051 44.6877 38.1467 44.6877Z" fill="#511BC9"/></g><defs><clipPath id="clip0_55_1159"><rect width="81" height="47.4609" fill="white"/></clipPath></defs></svg>